<svg width="14" height="14" viewBox="0 0 14 14" fill="none" xmlns="http://www.w3.org/2000/svg">
<path d="M4.54984 1.16663H9.44984C11.3165 1.16663 12.8332 2.68329 12.8332 4.54996V9.44996C12.8332 10.3473 12.4767 11.2078 11.8422 11.8423C11.2077 12.4768 10.3472 12.8333 9.44984 12.8333H4.54984C2.68317 12.8333 1.1665 11.3166 1.1665 9.44996V4.54996C1.1665 3.65264 1.52296 2.79208 2.15746 2.15758C2.79196 1.52308 3.65252 1.16663 4.54984 1.16663ZM4.43317 2.33329C3.87622 2.33329 3.34207 2.55454 2.94825 2.94837C2.55442 3.3422 2.33317 3.87634 2.33317 4.43329V9.56663C2.33317 10.7275 3.27234 11.6666 4.43317 11.6666H9.5665C10.1235 11.6666 10.6576 11.4454 11.0514 11.0516C11.4453 10.6577 11.6665 10.1236 11.6665 9.56663V4.43329C11.6665 3.27246 10.7273 2.33329 9.5665 2.33329H4.43317ZM10.0623 3.20829C10.2557 3.20829 10.4412 3.28512 10.5779 3.42186C10.7147 3.55861 10.7915 3.74407 10.7915 3.93746C10.7915 4.13085 10.7147 4.31631 10.5779 4.45306C10.4412 4.5898 10.2557 4.66663 10.0623 4.66663C9.86895 4.66663 9.68348 4.5898 9.54674 4.45306C9.40999 4.31631 9.33317 4.13085 9.33317 3.93746C9.33317 3.74407 9.40999 3.55861 9.54674 3.42186C9.68348 3.28512 9.86895 3.20829 10.0623 3.20829ZM6.99984 4.08329C7.77339 4.08329 8.51525 4.39058 9.06223 4.93756C9.60921 5.48455 9.9165 6.22641 9.9165 6.99996C9.9165 7.77351 9.60921 8.51537 9.06223 9.06235C8.51525 9.60934 7.77339 9.91663 6.99984 9.91663C6.22629 9.91663 5.48442 9.60934 4.93744 9.06235C4.39046 8.51537 4.08317 7.77351 4.08317 6.99996C4.08317 6.22641 4.39046 5.48455 4.93744 4.93756C5.48442 4.39058 6.22629 4.08329 6.99984 4.08329ZM6.99984 5.24996C6.53571 5.24996 6.09059 5.43433 5.7624 5.76252C5.43421 6.09071 5.24984 6.53583 5.24984 6.99996C5.24984 7.46409 5.43421 7.90921 5.7624 8.2374C6.09059 8.56559 6.53571 8.74996 6.99984 8.74996C7.46397 8.74996 7.90909 8.56559 8.23727 8.2374C8.56546 7.90921 8.74984 7.46409 8.74984 6.99996C8.74984 6.53583 8.56546 6.09071 8.23727 5.76252C7.90909 5.43433 7.46397 5.24996 6.99984 5.24996Z" fill="white"/>
</svg>
