<svg width="121" height="121" viewBox="0 0 121 121" fill="none" xmlns="http://www.w3.org/2000/svg">
<g clip-path="url(#clip0_287_224)">
<mask id="mask0_287_224" style="mask-type:luminance" maskUnits="userSpaceOnUse" x="-11" y="-24" width="157" height="157">
<path d="M146 -24H-11V133H146V-24Z" fill="white"/>
</mask>
<g mask="url(#mask0_287_224)">
<path d="M19.1752 82.132C19.7404 82.132 20.18 81.6924 20.2114 81.1272C20.5568 60.7486 31.8294 60.78 32.1748 81.19C32.1748 81.7238 32.6144 82.132 33.1168 82.132C33.6192 82.132 34.0274 81.7552 34.0588 81.2528C34.467 75.3496 36.7592 42.0028 35.7858 36.0054C35.7858 36.0054 37.1046 34.6238 37.8896 34.5924C38.706 34.561 40.0248 34.718 40.276 34.2784C40.5272 33.8702 40.1504 32.7712 39.2084 32.6456C38.2978 32.52 37.1046 32.363 36.6022 31.7978C36.0684 31.2326 34.7182 31.9548 33.7762 31.6722C32.8656 31.3582 32.269 30.5104 31.5468 30.8872C30.7932 31.264 30.7932 31.7978 31.5468 32.4886C32.3004 33.1794 33.8076 34.4982 33.2738 38.2348C32.74 41.9714 32.6144 49.4132 30.6362 52.459C28.658 55.5048 20.5568 58.5192 16.9772 62.4128C13.3976 66.3064 13.1464 73.6226 13.7744 74.596C14.4024 75.5694 13.8058 72.0212 15.0932 69.0382C16.3806 66.0552 17.4482 65.176 17.4482 65.176L18.1076 81.19C18.1704 81.6924 18.61 82.132 19.1752 82.132Z" fill="#5F3420"/>
</g>
<mask id="mask1_287_224" style="mask-type:luminance" maskUnits="userSpaceOnUse" x="-11" y="-24" width="157" height="157">
<path d="M146 -24H-11V133H146V-24Z" fill="white"/>
</mask>
<g mask="url(#mask1_287_224)">
<path d="M82.2896 45.0168C82.3205 45.0168 82.3515 44.9858 82.3825 44.9858C82.3515 44.9858 82.3205 44.9858 82.2896 45.0168Z" fill="#CC592D"/>
</g>
<mask id="mask2_287_224" style="mask-type:luminance" maskUnits="userSpaceOnUse" x="-11" y="-24" width="157" height="157">
<path d="M146 -24H-11V133H146V-24Z" fill="white"/>
</mask>
<g mask="url(#mask2_287_224)">
<path d="M81.2534 44.9544C81.2844 44.9854 81.3464 44.9854 81.3774 45.0164H81.3464C81.3154 44.9854 81.2844 44.9854 81.2534 44.9544Z" fill="#CC592D"/>
</g>
<mask id="mask3_287_224" style="mask-type:luminance" maskUnits="userSpaceOnUse" x="-11" y="-24" width="157" height="157">
<path d="M146 -24H-11V133H146V-24Z" fill="white"/>
</mask>
<g mask="url(#mask3_287_224)">
<path d="M83.3884 42.6622C82.3208 42.1912 81.2846 41.626 80.217 41.1864C79.8402 39.1768 79.5576 37.073 80.2798 35.3774C80.6252 34.561 81.2846 33.933 81.787 33.2108C82.9802 31.4524 82.2265 29.0974 80.0285 28.8148C78.3015 28.595 76.6373 29.38 74.9731 29.5998C73.9369 29.7254 72.9636 30.2906 71.9274 30.4476L71.739 30.479C69.6352 30.793 67.7512 33.5876 69.384 35.4402C70.2946 36.4764 73.0578 36.1938 73.3718 37.4812C73.466 37.858 73.4032 38.2662 73.3404 38.643C73.2462 39.3024 73.1834 39.9304 73.152 40.5898C73.0892 41.8144 73.152 43.0704 73.152 44.295C73.152 44.5148 73.152 44.7346 73.152 44.9858C73.2148 48.1886 73.3404 51.36 73.466 54.5628C73.5602 56.698 72.5239 58.7076 70.7341 59.838C66.3067 62.6012 61.063 64.234 55.411 64.234C50.0101 64.234 44.9547 62.7582 40.6529 60.152C38.7689 59.0216 37.67 56.9492 37.7642 54.7826C37.8898 51.7368 38.0154 48.7224 38.0782 45.6766C38.0782 45.4254 38.0782 45.2056 38.0782 44.9544C38.0782 43.8868 38.0468 42.7878 38.0154 41.6888C38.0154 41.3434 38.0153 40.9666 37.9839 40.5898C37.9839 39.6792 37.3246 36.7904 38.6434 36.5392C38.926 36.4764 39.2399 36.5392 39.5225 36.5706C40.9355 36.6334 42.1287 35.6914 42.3799 34.3098C42.7567 32.4572 41.3751 31.107 39.8365 30.3534C38.9887 29.9452 38.1095 29.694 37.1989 29.537C36.0999 29.3486 35.001 29.6312 33.9334 29.2858C32.9286 28.9718 32.2063 28.438 31.0759 28.7206C30.1339 28.9404 29.3175 29.6626 29.0035 30.5732C28.5325 31.8606 29.1919 33.148 30.1339 34.0272C30.7619 34.5924 31.5156 35.2832 31.1702 37.858C31.0132 38.9884 30.919 40.1502 30.7934 41.2806C30.6992 42.411 30.5735 43.6984 30.4165 44.9544V44.9858C30.2909 46.1476 28.6581 46.336 28.2813 45.237C28.2499 45.1428 28.2186 45.0486 28.1872 44.9544C28.1244 44.766 28.0615 44.5776 27.9987 44.3892C27.8731 44.0124 27.7475 43.6356 27.6533 43.2274C27.5277 42.8506 27.4335 42.4424 27.3393 42.0656C27.1823 41.469 27.0881 40.8724 26.9625 40.2758L26.8683 39.6792C26.8369 39.4908 26.8056 39.271 26.7742 39.0826C26.7428 38.8628 26.7427 38.6744 26.7113 38.4546C26.6799 38.2348 26.6799 38.0464 26.6485 37.8266C26.6171 37.387 26.5857 36.916 26.5543 36.445C26.5543 36.0682 26.5229 35.6914 26.5229 35.3146C26.5229 35.0634 26.5229 34.8122 26.5229 34.561C26.5229 34.3726 26.5229 34.1842 26.5543 33.9958C26.5543 33.8702 26.5543 33.7132 26.5857 33.5876C26.6171 32.8026 26.7113 32.049 26.8055 31.2954C27.0253 29.7568 27.3393 28.2496 27.8103 26.8052C28.3755 24.984 29.0977 23.257 29.9769 21.6242C29.9769 21.6242 29.977 21.5928 30.0084 21.5928C30.1654 21.2788 30.3537 20.9962 30.5107 20.6822C30.5421 20.6508 30.5421 20.6194 30.5735 20.588C30.7305 20.3054 30.9189 20.0228 31.0759 19.7402C31.1073 19.6774 31.1701 19.6146 31.2015 19.5518C31.3585 19.3006 31.5155 19.0494 31.7039 18.8296C31.9237 18.5156 32.1436 18.233 32.3634 17.919C32.6774 17.4794 33.0227 17.0398 33.3995 16.6316C33.8705 16.0664 34.373 15.5326 34.8754 15.0302C35.629 14.2452 36.4454 13.523 37.2932 12.8322C37.4188 12.7066 37.5757 12.6124 37.7327 12.4868C38.1723 12.1414 38.6119 11.8274 39.0515 11.5134C39.2085 11.4192 39.3342 11.325 39.4912 11.2308C39.9622 10.9168 40.4332 10.6342 40.9042 10.3516C41.0612 10.2574 41.1867 10.1946 41.3437 10.1004C41.3751 10.069 41.4065 10.069 41.4379 10.0376C41.5635 9.94344 41.7205 9.88063 41.8775 9.81783C42.1915 9.62943 42.5369 9.47244 42.8509 9.31544C42.9451 9.28404 43.0393 9.22123 43.1335 9.18983C43.2591 9.12703 43.4161 9.06424 43.5417 9.00144C43.7301 8.90724 43.8871 8.84444 44.0755 8.78164C44.5465 8.56184 45.049 8.37344 45.5514 8.18504C45.7084 8.12224 45.8654 8.05944 46.0224 7.99664C46.148 7.96524 46.2735 7.90244 46.3677 7.87104C46.9015 7.68264 47.4667 7.52564 48.0319 7.36864C48.1575 7.33724 48.2832 7.30583 48.3774 7.27443C48.503 7.24303 48.6599 7.21164 48.8169 7.18024C48.9425 7.14884 49.0996 7.11744 49.2252 7.08604C49.3822 7.05464 49.5391 7.02323 49.6647 6.99183C49.8531 6.96043 50.0415 6.92904 50.23 6.89764C50.4184 6.86624 50.6068 6.83483 50.7952 6.80343C50.9208 6.77203 51.0463 6.77204 51.1405 6.74064C51.3289 6.70924 51.5173 6.67783 51.7057 6.64643C51.9569 6.61503 52.1768 6.58364 52.428 6.55224C52.7106 6.52084 52.9931 6.48943 53.2757 6.48943C53.4641 6.48943 53.6525 6.45804 53.8095 6.45804C54.0921 6.45804 54.3434 6.42664 54.626 6.42664C54.8772 6.42664 55.097 6.42664 55.3482 6.42664C55.6936 6.42664 56.0703 6.42664 56.4157 6.45804C56.6355 6.45804 56.8867 6.48943 57.1065 6.48943C57.3263 6.48943 57.5776 6.52084 57.7974 6.55224C58.0172 6.58364 58.2684 6.58364 58.4882 6.61504C58.6138 6.61504 58.7708 6.64643 58.8964 6.64643C59.0848 6.67783 59.2418 6.67784 59.4302 6.70924C59.5872 6.74064 59.7127 6.74064 59.8697 6.77204C60.0895 6.80344 60.3093 6.83484 60.5605 6.89764C60.7803 6.92904 61.0002 6.99184 61.22 7.02324C61.4398 7.05464 61.6282 7.11743 61.848 7.14883C62.9784 7.40003 64.046 7.74544 65.145 8.12224C65.3648 8.18504 65.5532 8.27924 65.773 8.37344C66.5266 8.68744 67.2802 9.00143 68.0024 9.34683C68.3164 9.50383 68.6304 9.66084 68.9444 9.84924C69.5724 10.1946 70.2004 10.54 70.797 10.9482C70.954 11.0424 71.0795 11.1366 71.2365 11.2308C72.5553 12.11 73.8427 13.1148 75.0045 14.1824C77.6107 16.6002 79.746 19.489 81.316 22.6918C81.473 23.0058 81.6299 23.3512 81.7555 23.6652C81.9439 24.0734 82.101 24.4502 82.258 24.8584C82.3208 25.0468 82.415 25.2352 82.4778 25.4236C82.5092 25.4864 82.5406 25.5806 82.572 25.6434C82.6976 25.9888 82.7918 26.3028 82.9174 26.6482V26.6796C83.0116 26.9308 83.0743 27.182 83.1371 27.4332C83.1685 27.5274 83.1686 27.5902 83.2 27.6844C83.4826 28.7206 83.7024 29.7568 83.8908 30.8244C83.8908 30.8558 83.8908 30.8558 83.8908 30.8872C83.9536 31.2326 83.985 31.578 84.0164 31.9234C84.1106 32.6456 84.1734 33.3678 84.2048 34.1214C84.3932 37.1672 84.0792 39.9932 83.3884 42.6622Z" fill="#CC592D"/>
</g>
<mask id="mask4_287_224" style="mask-type:luminance" maskUnits="userSpaceOnUse" x="-11" y="-24" width="157" height="157">
<path d="M146 -24H-11V133H146V-24Z" fill="white"/>
</mask>
<g mask="url(#mask4_287_224)">
<path d="M56.5097 6.52078C43.4787 6.04978 32.2689 14.2138 28.2183 25.769H82.6659C78.7723 14.8732 68.5359 6.92898 56.5097 6.52078Z" fill="#E6AE47"/>
</g>
<mask id="mask5_287_224" style="mask-type:luminance" maskUnits="userSpaceOnUse" x="-11" y="-24" width="157" height="157">
<path d="M146 -24H-11V133H146V-24Z" fill="white"/>
</mask>
<g mask="url(#mask5_287_224)">
<path d="M83.389 42.6622C82.3214 42.1912 81.2852 41.626 80.2176 41.1864C79.8408 39.1768 79.5582 37.073 80.2804 35.3774C80.6258 34.561 81.2852 33.933 81.7876 33.2108C82.9808 31.4524 82.2272 29.0974 80.0292 28.8148C78.3022 28.595 85.6498 30.7616 83.9856 31.0128C82.9494 31.1384 80.092 31.0442 79.0558 31.2012L77.737 35.8798C75.6332 36.1938 78.679 43.2902 69.3846 35.503C68.3484 34.6238 73.0584 36.2566 73.3724 37.544C73.4666 37.9208 73.4038 38.329 73.341 38.7058C73.2468 39.3652 73.184 39.9932 73.1526 40.6526C73.0898 41.8772 73.1526 43.1332 73.1526 44.3578C73.1526 44.5776 73.1526 44.7974 73.1526 45.0486H38.0788C38.0788 43.9496 38.0474 42.882 38.016 41.783C38.016 41.4376 38.016 41.0608 37.9846 40.684C37.9846 39.7734 37.3252 36.8846 38.644 36.6334C38.9266 36.5706 39.2406 36.6334 39.5232 36.6648C40.9362 36.7276 42.1294 35.7856 42.3806 34.404C42.7574 32.5514 41.3758 31.2012 39.8372 30.4476C38.9894 30.0394 38.1102 29.7882 37.1996 29.6312C36.1006 29.4428 35.0016 29.7254 33.934 29.38C32.9292 29.066 32.207 28.5322 31.0766 28.8148C30.1346 29.0346 29.3182 29.7568 29.0042 30.6674C28.5332 31.9548 29.1926 33.2422 30.1346 34.1214C30.7626 34.6866 31.5162 35.3774 31.1708 37.9522C31.0138 39.0826 30.9196 40.2444 30.794 41.3748C30.6998 42.5052 30.5742 43.7926 30.4172 45.0486H28.1564C28.0936 44.8602 28.0308 44.6718 27.968 44.4834C27.8424 44.1066 27.7168 43.7298 27.6226 43.3216C27.497 42.9448 27.4028 42.5366 27.3086 42.1598C27.183 41.5632 27.0574 40.9666 26.9318 40.37L26.8376 39.7734C26.8062 39.585 26.7748 39.3652 26.7434 39.1768C26.712 38.957 26.712 38.7686 26.6806 38.5488C26.6492 38.329 26.6492 38.1406 26.6178 37.9208C26.5864 37.4812 26.555 37.0102 26.5236 36.5392C26.5236 36.1624 26.4922 35.7856 26.4922 35.4088C26.4922 35.1576 26.4922 34.9064 26.4922 34.6552C26.4922 34.4668 26.4922 34.2784 26.5236 34.09C26.5236 33.9644 26.5236 33.8074 26.555 33.6818C26.5864 32.8968 26.6806 32.1432 26.7748 31.3896C26.9946 29.851 27.34 28.3438 27.7796 26.8994C27.9052 26.5226 28.0308 26.1458 28.1564 25.769H82.604C82.7296 26.1144 82.8238 26.4284 82.9494 26.7738V26.8052C83.0122 27.0564 83.1064 27.3076 83.1692 27.5588C83.2006 27.653 83.2006 27.7158 83.232 27.81C83.5146 28.8462 83.7344 29.8824 83.9228 30.95C83.9228 30.9814 83.9228 30.9814 83.9228 31.0128C83.9856 31.3582 84.017 31.7036 84.0484 32.049C84.1426 32.7712 84.2054 33.4934 84.2368 34.247C84.3938 37.1672 84.0798 39.9932 83.389 42.6622Z" fill="#0079C0"/>
</g>
<mask id="mask6_287_224" style="mask-type:luminance" maskUnits="userSpaceOnUse" x="-11" y="-24" width="157" height="157">
<path d="M146 -24H-11V133H146V-24Z" fill="white"/>
</mask>
<g mask="url(#mask6_287_224)">
<path d="M25.5183 73.7482C26.8371 73.654 28.2187 73.5598 29.4433 74.0936C29.8515 74.282 30.2911 74.6588 30.1341 75.067C30.0085 75.381 29.6631 75.4752 29.3177 75.538C27.4651 75.8834 25.5811 75.9776 23.6971 75.852C23.1005 75.8206 21.7503 75.852 21.4363 75.1926C21.1537 74.596 21.9387 74.2506 22.4097 74.0936C23.3831 73.7796 24.5135 73.8424 25.5183 73.7482Z" fill="#5F3420"/>
</g>
<mask id="mask7_287_224" style="mask-type:luminance" maskUnits="userSpaceOnUse" x="-11" y="-24" width="157" height="157">
<path d="M146 -24H-11V133H146V-24Z" fill="white"/>
</mask>
<g mask="url(#mask7_287_224)">
<path d="M52.9932 39.8991C52.7734 39.8991 52.585 39.8991 52.428 39.8677C51.2034 39.7421 50.2928 39.3967 49.6334 38.8315C49.0682 38.3291 48.7542 37.6383 48.503 37.0417C48.3774 36.7591 48.2832 36.4765 48.2518 36.1625C48.2204 35.9741 48.2518 35.7857 48.2832 35.6287C48.2832 35.5659 48.2832 35.4717 48.3146 35.4089C48.3146 35.2519 48.3146 35.1263 48.3146 34.9693C48.3146 34.7495 48.2832 34.4983 48.3146 34.2471C48.3774 33.8075 48.5344 33.4307 48.66 33.0853C48.7542 32.8341 48.8798 32.5515 49.0682 32.3003C49.4136 31.8293 49.9474 31.4211 50.701 31.1071C51.329 30.8559 51.9884 30.6675 52.6478 30.5733C52.9618 30.5419 53.213 30.7303 53.2758 31.0129C53.3072 31.2955 53.1188 31.5467 52.8048 31.6095C52.2396 31.6723 51.6744 31.8293 51.1406 32.0491C50.5754 32.2689 50.1986 32.5515 49.9788 32.8655C49.8532 33.0225 49.759 33.2423 49.6962 33.4621C49.5706 33.7761 49.445 34.0587 49.4136 34.3413C49.3822 34.4983 49.4136 34.6867 49.4136 34.9065C49.4136 35.0949 49.445 35.2519 49.4136 35.4403C49.4136 35.5345 49.4136 35.6287 49.3822 35.6915C49.3822 35.8171 49.3508 35.9427 49.3822 36.0683C49.3822 36.2567 49.4764 36.4451 49.5706 36.6649C49.7904 37.1987 50.0416 37.7325 50.4184 38.1093C50.858 38.5175 51.5802 38.7687 52.5222 38.8629C52.742 38.8943 52.9932 38.8943 53.2444 38.8629C53.7468 38.8001 54.2806 38.5803 54.6888 38.2035C55.0656 37.8581 55.3796 37.3871 55.5994 36.8533C55.7878 36.3195 55.8506 35.7543 55.7878 35.2833C55.6936 34.7809 55.4424 34.3099 55.0656 33.9959C54.6888 33.6819 54.1236 33.4935 53.4328 33.3993C52.8676 33.3365 52.3652 33.3679 51.957 33.5249C51.5174 33.6819 51.1406 33.9645 50.9522 34.3099C50.7638 34.6867 50.7324 35.1891 50.9208 35.7229C51.0464 36.1311 51.2348 36.4765 51.486 36.7277C51.6116 36.8533 51.7058 36.9161 51.8 36.9789C51.8942 37.0417 52.0512 37.0731 52.2082 37.0731C52.8362 37.1359 53.4642 36.9161 53.7782 36.5079C54.0294 36.1939 54.0922 35.7857 53.9352 35.4717C53.8096 35.1577 53.4642 34.9065 53.1188 34.9065C52.7734 34.9065 52.428 35.0949 52.3338 35.3775C52.2396 35.6601 51.9256 35.7857 51.643 35.7229C51.3604 35.6287 51.2034 35.3461 51.2976 35.0635C51.5488 34.3413 52.3338 33.8389 53.1502 33.8703C53.9352 33.9017 54.6574 34.4041 54.94 35.0949C55.2226 35.7543 55.097 36.5079 54.626 37.1045C54.0922 37.7953 53.0874 38.2035 52.0512 38.0779C51.7372 38.0465 51.486 37.9837 51.2348 37.8581C51.015 37.7325 50.7952 37.5755 50.6068 37.3871C50.2614 37.0103 49.9788 36.5393 49.8218 35.9741C49.6648 35.4089 49.5392 34.5611 49.9474 33.8075C50.2614 33.2423 50.8266 32.7713 51.5488 32.5201C52.114 32.3317 52.7734 32.2689 53.527 32.3631C54.4376 32.4573 55.1912 32.7399 55.7564 33.1795C56.3216 33.6505 56.7298 34.3099 56.8554 35.0949C56.981 35.7543 56.8868 36.4451 56.6356 37.1673C56.3844 37.8581 55.9762 38.4861 55.4738 38.9571C54.8772 39.4909 54.155 39.8049 53.4014 39.8991C53.2444 39.8991 53.1188 39.8991 52.9932 39.8991Z" fill="white"/>
</g>
<mask id="mask8_287_224" style="mask-type:luminance" maskUnits="userSpaceOnUse" x="-11" y="-24" width="157" height="157">
<path d="M146 -24H-11V133H146V-24Z" fill="white"/>
</mask>
<g mask="url(#mask8_287_224)">
<path d="M52.6166 29.3172C52.334 29.3172 52.0828 29.1288 52.0828 28.8462C52.02 28.2496 52.02 27.6844 52.02 27.0878C52.02 26.8052 52.2712 26.5854 52.5852 26.5854C52.8992 26.5854 53.119 26.8366 53.119 27.1192C53.119 27.6844 53.119 28.2182 53.1818 28.7834C53.2132 29.066 52.9934 29.3172 52.6794 29.3486C52.648 29.3172 52.6166 29.3172 52.6166 29.3172Z" fill="white"/>
</g>
<mask id="mask9_287_224" style="mask-type:luminance" maskUnits="userSpaceOnUse" x="-11" y="-24" width="157" height="157">
<path d="M146 -24H-11V133H146V-24Z" fill="white"/>
</mask>
<g mask="url(#mask9_287_224)">
<path d="M45.1744 36.0682C45.0488 36.0682 44.9232 36.0682 44.7662 36.0682C44.4522 36.0682 44.2324 35.817 44.2324 35.5344C44.2324 35.2518 44.4836 35.032 44.7976 35.032C45.3942 35.032 45.9908 35.032 46.556 34.9692C46.87 34.9378 47.1212 35.1576 47.1526 35.4402C47.184 35.7228 46.9642 35.974 46.6502 36.0054C46.1792 36.0682 45.6768 36.0682 45.1744 36.0682Z" fill="white"/>
</g>
<mask id="mask10_287_224" style="mask-type:luminance" maskUnits="userSpaceOnUse" x="-11" y="-24" width="157" height="157">
<path d="M146 -24H-11V133H146V-24Z" fill="white"/>
</mask>
<g mask="url(#mask10_287_224)">
<path d="M57.9855 36.0682C57.8599 36.0682 57.7343 36.0682 57.5773 36.0682C57.2633 36.0682 57.0435 35.817 57.0435 35.5344C57.0435 35.2518 57.2947 35.032 57.6087 35.032C58.2053 35.032 58.8019 35.032 59.3671 34.9692C59.6811 34.9378 59.9323 35.1576 59.9637 35.4402C59.9951 35.7228 59.7753 35.974 59.4613 36.0054C58.9903 36.0682 58.4879 36.0682 57.9855 36.0682Z" fill="white"/>
</g>
<mask id="mask11_287_224" style="mask-type:luminance" maskUnits="userSpaceOnUse" x="-11" y="-24" width="157" height="157">
<path d="M146 -24H-11V133H146V-24Z" fill="white"/>
</mask>
<g mask="url(#mask11_287_224)">
<path d="M57.3896 30.95C57.2954 30.95 57.2012 30.9186 57.107 30.8872C56.8558 30.7302 56.7616 30.4162 56.9186 30.1964C57.264 29.6312 57.6722 29.066 58.049 28.5008C58.206 28.281 58.5514 28.2182 58.8026 28.3752C59.0538 28.5322 59.1166 28.8462 58.9596 29.0974C58.5828 29.6312 58.206 30.165 57.8606 30.7302C57.7664 30.8558 57.578 30.95 57.3896 30.95Z" fill="white"/>
</g>
<mask id="mask12_287_224" style="mask-type:luminance" maskUnits="userSpaceOnUse" x="-11" y="-24" width="157" height="157">
<path d="M146 -24H-11V133H146V-24Z" fill="white"/>
</mask>
<g mask="url(#mask12_287_224)">
<path d="M47.7811 30.95C47.5927 30.95 47.4043 30.8558 47.3101 30.6988C46.9647 30.1336 46.5879 29.5998 46.2111 29.066C46.0541 28.8462 46.1169 28.5008 46.3681 28.3438C46.6193 28.1868 46.9647 28.2496 47.1217 28.4694C47.5299 29.0032 47.9067 29.5684 48.2521 30.165C48.4091 30.4162 48.3149 30.7302 48.0637 30.8558C47.9695 30.9186 47.8753 30.95 47.7811 30.95Z" fill="white"/>
</g>
<mask id="mask13_287_224" style="mask-type:luminance" maskUnits="userSpaceOnUse" x="-11" y="-24" width="157" height="157">
<path d="M146 -24H-11V133H146V-24Z" fill="white"/>
</mask>
<g mask="url(#mask13_287_224)">
<path d="M52.6162 43.5728C52.3022 43.5728 52.051 43.3216 52.0824 43.039C52.0824 42.4738 52.0824 41.94 52.0196 41.3748C51.9882 41.0922 52.208 40.841 52.522 40.8096C52.836 40.7782 53.0872 40.998 53.1186 41.2806C53.1814 41.8772 53.1814 42.4424 53.1814 43.039C53.15 43.353 52.8988 43.5728 52.6162 43.5728Z" fill="white"/>
</g>
<mask id="mask14_287_224" style="mask-type:luminance" maskUnits="userSpaceOnUse" x="-11" y="-24" width="157" height="157">
<path d="M146 -24H-11V133H146V-24Z" fill="white"/>
</mask>
<g mask="url(#mask14_287_224)">
<path d="M46.6503 41.8772C46.5561 41.8772 46.4305 41.8458 46.3363 41.783C46.0851 41.626 46.0223 41.312 46.1793 41.0608C46.5561 40.527 46.9329 39.9932 47.2783 39.428C47.4353 39.1768 47.7807 39.114 48.0319 39.2396C48.2831 39.3966 48.3773 39.7106 48.2203 39.9304C47.8435 40.4956 47.4667 41.0608 47.0899 41.626C46.9957 41.8144 46.8387 41.8772 46.6503 41.8772Z" fill="white"/>
</g>
<mask id="mask15_287_224" style="mask-type:luminance" maskUnits="userSpaceOnUse" x="-11" y="-24" width="157" height="157">
<path d="M146 -24H-11V133H146V-24Z" fill="white"/>
</mask>
<g mask="url(#mask15_287_224)">
<path d="M58.5193 41.8772C58.3309 41.8772 58.1739 41.783 58.0797 41.6574C57.6715 41.1236 57.2947 40.5584 56.9493 39.9618C56.7923 39.7106 56.8865 39.3966 57.1377 39.271C57.3889 39.114 57.7343 39.2082 57.8913 39.4594C58.2367 40.0246 58.6135 40.5584 58.9903 41.0922C59.1473 41.312 59.0845 41.6574 58.8333 41.8144C58.7391 41.8458 58.6135 41.8772 58.5193 41.8772Z" fill="white"/>
</g>
<path d="M40.0877 79.1176C39.2085 79.1176 38.4235 78.7094 37.7641 77.8616C37.0733 77.0138 36.7593 76.166 36.7593 75.2554C36.7593 74.1878 37.0733 73.026 37.7327 71.7072C38.3921 70.3884 39.2085 69.3208 40.2447 68.473C41.2809 67.6252 42.3485 67.217 43.4475 67.217C44.3267 67.217 45.0175 67.3112 45.5827 67.531C46.1479 67.7508 46.6503 68.0334 47.1213 68.4416C47.5923 68.8498 47.9063 69.258 48.0633 69.6976C48.2203 70.1372 48.3145 70.7024 48.3145 71.456C48.3145 72.1154 48.0947 72.9004 47.6865 73.8424C47.2783 74.7844 46.6503 75.6636 45.8339 76.5114C45.0175 77.3592 44.2011 77.9872 43.3847 78.4582C42.5369 78.8664 41.4379 79.1176 40.0877 79.1176ZM38.7061 75.1612C38.7061 75.7892 38.8945 76.323 39.2713 76.7626C39.6481 77.2022 40.0877 77.3906 40.5901 77.3906C41.9717 77.3906 43.2905 76.7312 44.4837 75.381C45.7083 74.0622 46.3049 72.6492 46.3049 71.142C46.3049 70.6082 46.2107 70.2 45.9909 69.8546C45.8025 69.5406 45.4571 69.258 44.9547 69.0382C44.4837 68.8184 43.9499 68.7242 43.3847 68.7242C42.3799 68.7242 41.3437 69.4464 40.2761 70.8908C39.2399 72.3666 38.7061 73.7796 38.7061 75.1612Z" fill="white"/>
<path d="M50.0731 76.009L50.6383 73.4028C51.0779 71.3304 51.2977 69.886 51.3291 69.0696C51.3291 68.6614 51.3605 68.4102 51.4233 68.2532C51.4547 68.0962 51.5803 67.9706 51.7687 67.845C51.9571 67.7194 52.1769 67.6566 52.4281 67.6566C52.5851 67.6566 52.7735 67.7194 52.9933 67.8136C53.2131 67.9078 53.3701 68.2532 53.5271 68.787C53.7469 69.6976 54.3121 70.8594 55.2227 72.3666C56.1333 73.8738 56.9497 75.0356 57.6719 75.9462C57.8603 75.067 58.0801 73.9052 58.3313 72.4922C58.4883 71.4874 58.6453 70.6082 58.8023 69.8546C58.9279 69.2266 58.9907 68.6928 59.0221 68.1904C59.0535 67.7508 59.1791 67.4368 59.4303 67.2798C59.6815 67.1228 59.9327 67.06 60.1839 67.06C60.4037 67.06 60.5921 67.1856 60.7177 67.4054C60.8747 67.6566 60.9375 67.9392 60.9375 68.2846C60.9375 68.5672 60.8747 68.944 60.7177 69.4778C60.4037 70.671 60.0583 72.1782 59.7757 74.0622C59.4617 75.9462 59.3047 77.0138 59.3047 77.265V77.5162C59.3047 77.8302 59.2733 78.05 59.2419 78.1756C59.1791 78.3326 59.0535 78.4582 58.8651 78.5838C58.6767 78.7094 58.3941 78.7722 58.0801 78.7722C57.8917 78.7722 57.7347 78.7408 57.6719 78.7094C57.5777 78.678 57.4835 78.5838 57.3265 78.3954C57.1695 78.207 57.0439 77.9872 56.8555 77.7046C56.6043 77.265 56.4159 76.9824 56.2903 76.8254C55.0657 75.2554 53.8725 73.4342 52.7107 71.3304C52.5537 71.9584 52.3025 73.4656 51.9885 75.8206L51.8943 76.5114C51.8629 76.7626 51.8315 77.108 51.8001 77.579C51.7687 78.1442 51.6431 78.521 51.3919 78.7722C51.1721 79.0234 50.9523 79.149 50.7325 79.149C50.3871 79.149 50.1673 79.0548 50.0103 78.8978C49.8533 78.7094 49.7905 78.364 49.7905 77.8616C49.7905 77.4534 49.8847 76.8568 50.1045 76.0718L50.0731 76.009Z" fill="white"/>
<path d="M68.285 73.4028C68.128 73.8424 67.9396 75.2554 67.7198 77.6732C67.6884 78.207 67.6256 78.521 67.5314 78.6152C67.4372 78.7094 67.3116 78.7722 67.0918 78.8664C66.872 78.9606 66.715 78.992 66.5894 78.992C66.0242 78.992 65.7416 78.6152 65.7416 77.8302C65.7416 77.4848 65.8044 76.8254 65.9614 75.852C66.1184 74.91 66.1812 74.2192 66.1812 73.8424C66.1812 73.6226 66.1498 73.4028 66.087 73.2144C65.6474 72.7434 65.145 72.1154 64.517 71.2676C63.7948 70.3256 63.2924 69.729 62.9784 69.5092C62.3818 69.0696 61.9736 68.7242 61.8166 68.5044C61.6596 68.2532 61.5654 68.0648 61.5654 67.8764C61.5654 67.7508 61.691 67.5938 61.9108 67.4054C62.1306 67.217 62.3504 67.1228 62.5388 67.1228C63.3238 67.1228 64.5484 68.2218 66.1812 70.4512C66.715 71.2048 67.0918 71.6758 67.3116 71.8328C67.5 71.613 67.7198 71.3932 67.9082 71.142C68.0966 70.8908 68.3164 70.671 68.5362 70.4512C69.7922 69.1638 70.64 68.2218 71.0796 67.6252C71.4878 67.06 71.9588 66.746 72.4612 66.746C72.681 66.746 72.8694 66.8402 73.0264 67.0286C73.1834 67.217 73.2462 67.4054 73.2462 67.6252C73.2462 67.9392 72.3042 69.0382 70.4202 70.985C69.1014 72.4294 68.3792 73.2144 68.285 73.4028Z" fill="white"/>
<path d="M77.9554 71.5188C77.9554 71.5188 78.0182 71.456 78.1438 71.299C80.1534 69.0696 81.378 67.8136 81.7234 67.4996C82.1002 67.1856 82.3514 67.0286 82.477 67.0286C82.6654 67.0286 82.8852 67.1228 83.1364 67.3426C83.3876 67.5624 83.5132 67.7508 83.5132 67.9706C83.5132 68.159 83.2306 68.473 82.6968 68.944C82.2258 69.3522 81.692 69.886 81.0954 70.514L80.7814 70.828C79.5254 72.0212 78.8974 72.6806 78.8974 72.869C78.8974 72.9632 79.2742 73.4656 80.0592 74.3448C80.8128 75.2554 81.4094 75.8206 81.7862 76.0404C82.1944 76.2916 82.5084 76.5742 82.7596 76.8568C83.0108 77.1394 83.105 77.3592 83.105 77.4534C83.105 77.6418 83.0108 77.8302 82.8538 77.9872C82.6968 78.1442 82.477 78.2384 82.2572 78.2384C81.7862 78.2384 81.3466 78.05 80.907 77.7046C80.4674 77.3592 79.8708 76.6684 79.1172 75.695C78.4892 74.8786 78.0182 74.3134 77.7356 73.968C77.61 74.125 77.2646 74.4704 76.7622 75.0042C75.3492 76.48 74.5642 77.4848 74.4072 77.9558C74.2188 78.4582 74.0618 78.8036 73.999 78.9606C73.9048 79.1176 73.7478 79.2432 73.5594 79.3374C73.371 79.4316 73.1198 79.4944 72.8058 79.4944C72.2406 79.4944 71.958 79.2118 71.958 78.678C71.958 78.2698 72.272 77.7046 72.9 76.9196C73.528 76.1346 74.47 75.0984 75.726 73.8424L76.5738 72.9318C76.668 72.8376 76.7308 72.7748 76.7622 72.712C76.668 72.555 76.5424 72.398 76.3854 72.1782C76.04 71.8014 75.5062 71.0792 74.7526 70.043C73.999 69.0068 73.6222 68.3788 73.6222 68.159C73.6222 67.9078 73.7164 67.6252 73.9048 67.374C74.0932 67.1228 74.2816 66.9972 74.5014 66.9972C74.7212 66.9972 74.9096 67.06 75.098 67.1856C75.2864 67.3112 75.4748 67.5938 75.6632 68.002C76.2284 69.1638 76.982 70.3256 77.9554 71.5188Z" fill="white"/>
<mask id="mask16_287_224" style="mask-type:luminance" maskUnits="userSpaceOnUse" x="5" y="80" width="103" height="28">
<path d="M5.61133 80.9702C5.61133 83.4194 7.58953 85.3976 10.0387 85.3976H17.6375C18.8621 85.3976 19.8669 86.4024 19.8669 87.627C19.8669 88.8516 18.8621 89.8564 17.6375 89.8564H14.6545C13.4299 89.8564 12.4251 90.8612 12.4251 92.0858C12.4251 93.3104 13.4299 94.3152 14.6545 94.3152H15.1569C16.3815 94.3152 17.3863 95.32 17.3863 96.5446C17.3863 97.7692 18.3911 98.774 19.6157 98.774H27.0575C28.2821 98.774 29.2869 99.7788 29.2869 101.003C29.2869 102.228 30.2917 103.233 31.5163 103.233H39.5547C40.7793 103.233 41.7841 104.238 41.7841 105.462C41.7841 106.687 42.7889 107.692 44.0135 107.692H69.0707C70.2953 107.692 71.3001 106.687 71.3001 105.462C71.3001 104.238 72.3049 103.233 73.5295 103.233H81.5993C82.8239 103.233 83.8287 102.228 83.8287 101.003C83.8287 99.7788 84.8335 98.774 86.0581 98.774H93.4999C94.7245 98.774 95.7293 97.7692 95.7293 96.5446C95.7293 95.32 96.7341 94.3152 97.9587 94.3152H98.4297C99.6543 94.3152 100.659 93.3104 100.659 92.0858C100.659 90.8612 99.6543 89.8564 98.4297 89.8564H95.4467C94.2221 89.8564 93.2173 88.8516 93.2173 87.627C93.2173 86.4024 94.2221 85.3976 95.4467 85.3976H103.046C105.495 85.3976 107.473 83.4194 107.473 80.9702H5.61133Z" fill="white"/>
</mask>
<g mask="url(#mask16_287_224)">
<path d="M107.442 80.9702H5.61133V107.597H107.442V80.9702Z" fill="url(#paint0_linear_287_224)"/>
</g>
<mask id="mask17_287_224" style="mask-type:luminance" maskUnits="userSpaceOnUse" x="26" y="85" width="64" height="19">
<path d="M28.8155 85.3348C27.7793 85.3348 26.9629 86.1512 26.9629 87.1874C26.9629 88.2236 27.7793 89.04 28.8155 89.04H33.7453C34.7815 89.04 35.5979 89.8564 35.5979 90.8926C35.5979 91.9288 34.7815 92.7452 33.7453 92.7452H32.5521C31.5159 92.7452 30.6995 93.5616 30.6995 94.5978C30.6995 95.634 31.5159 96.4504 32.5521 96.4504H36.1003C37.1365 96.4504 37.9529 97.2668 37.9529 98.303C37.9529 99.3392 38.7693 100.156 39.8055 100.156H47.6241C48.6603 100.156 49.4767 100.972 49.4767 102.008C49.4767 103.044 50.2931 103.861 51.3293 103.861H64.7685C65.8047 103.861 66.6211 103.044 66.6211 102.008C66.6211 100.972 67.4375 100.156 68.4737 100.156H76.2923C77.3285 100.156 78.1449 99.3392 78.1449 98.303C78.1449 97.2668 78.9613 96.4504 79.9975 96.4504H83.5143C84.5505 96.4504 85.3669 95.634 85.3669 94.5978C85.3669 93.5616 84.5505 92.7452 83.5143 92.7452H82.3211C81.2849 92.7452 80.4685 91.9288 80.4685 90.8926C80.4685 89.8564 81.2849 89.04 82.3211 89.04H87.2509C88.2871 89.04 89.1035 88.2236 89.1035 87.1874C89.1035 86.1512 88.2871 85.3348 87.2509 85.3348H28.8155Z" fill="white"/>
</mask>
<g mask="url(#mask17_287_224)">
<path d="M89.1663 85.3348H26.9629V103.892H89.1663V85.3348Z" fill="url(#paint1_linear_287_224)"/>
</g>
<path d="M48.7231 91.709C48.7231 91.8032 48.6917 91.8974 48.6289 91.9288C48.5661 91.9602 48.5033 91.9916 48.4091 91.9916H47.6555C47.5613 91.9916 47.4985 91.9602 47.4357 91.9288C47.3729 91.8974 47.3415 91.8032 47.3415 91.709C47.3415 91.6148 47.3729 91.552 47.4043 91.4892C47.4357 91.4578 47.4985 91.395 47.5613 91.395C47.6241 91.3636 47.6555 91.3322 47.7183 91.3008C47.7497 91.2694 47.7811 91.2066 47.7811 91.1124V89.4796C47.7811 89.354 47.7811 89.2598 47.7497 89.197C47.7183 89.1342 47.6555 89.0714 47.5927 88.9772C47.5299 88.9144 47.4671 88.8516 47.4043 88.7574C47.3415 88.6632 47.3101 88.6004 47.3101 88.5062C47.3101 88.412 47.3415 88.3492 47.4043 88.3178C47.4671 88.2864 47.5299 88.255 47.5927 88.255H48.3777C48.4405 88.255 48.5033 88.255 48.5661 88.255C48.5975 88.255 48.6603 88.2864 48.6917 88.3178C48.7231 88.3492 48.7545 88.3806 48.8173 88.4434L50.3873 90.3588V89.1342C50.3873 89.04 50.3559 88.9772 50.3245 88.9458C50.2931 88.9144 50.2303 88.883 50.1989 88.8516C50.1361 88.8202 50.1047 88.7888 50.0733 88.7574C50.0419 88.726 50.0105 88.6318 50.0105 88.5376C50.0105 88.4434 50.0419 88.3492 50.1047 88.3178C50.1675 88.2864 50.2303 88.255 50.3245 88.255H51.0781C51.1723 88.255 51.2351 88.2864 51.2979 88.3178C51.3607 88.3806 51.3921 88.4434 51.3921 88.5376C51.3921 88.6632 51.3607 88.726 51.3293 88.7574C51.2665 88.7888 51.2037 88.8516 51.1409 88.883C51.0781 88.9144 51.0467 88.9458 51.0153 88.9772C50.9839 89.0086 50.9839 89.0714 50.9839 89.1342V90.7042C50.9839 90.7984 50.9839 90.8612 51.0153 90.9554C51.0153 91.0496 51.0467 91.1124 51.1095 91.2066C51.1409 91.2694 51.2037 91.3636 51.2351 91.4264C51.2979 91.5206 51.2979 91.5834 51.2979 91.6776C51.2979 91.7718 51.2665 91.8346 51.2351 91.8974C51.2037 91.9602 51.1095 91.9916 51.0467 91.9916H50.1675C50.1047 91.9916 50.0419 91.9602 50.0105 91.9288C49.9791 91.8974 49.9477 91.8346 49.9477 91.7404C49.9477 91.6776 49.9163 91.6148 49.8849 91.5834C49.8221 91.5206 49.7907 91.4578 49.7593 91.4264L48.4405 89.825V91.081C48.4405 91.1438 48.4405 91.2066 48.4719 91.238C48.5033 91.2694 48.5347 91.3008 48.5975 91.3322C48.6603 91.395 48.7231 91.4264 48.7859 91.4578C48.6917 91.5206 48.7231 91.5834 48.7231 91.709Z" fill="white"/>
<path d="M52.8048 91.709C52.8048 91.8032 52.7734 91.8974 52.7106 91.9288C52.6478 91.9602 52.585 91.9916 52.4908 91.9916H51.7686C51.6744 91.9916 51.6116 91.9602 51.5488 91.9288C51.486 91.8974 51.4546 91.8032 51.4546 91.709C51.4546 91.6148 51.486 91.552 51.5174 91.5206C51.5488 91.4892 51.6116 91.4264 51.6744 91.3636C51.7372 91.3322 51.7686 91.2694 51.7686 91.2066C51.7686 91.1438 51.8 91.081 51.8314 91.0182L52.3966 89.1656C52.3966 89.1342 52.428 89.1028 52.428 89.0714C52.428 89.04 52.428 89.0086 52.428 88.9772C52.428 88.9458 52.428 88.9144 52.3966 88.883C52.3652 88.8516 52.3338 88.8202 52.3024 88.8202C52.271 88.7888 52.2396 88.7574 52.2082 88.726C52.1768 88.6946 52.1768 88.6318 52.1768 88.5376C52.1768 88.4434 52.2082 88.3492 52.271 88.3178C52.3338 88.2864 52.3966 88.255 52.4908 88.255H54.312C54.4062 88.255 54.469 88.2864 54.5318 88.3178C54.5946 88.3492 54.626 88.4434 54.626 88.5376C54.626 88.6004 54.626 88.6632 54.5946 88.6946C54.5632 88.726 54.5318 88.7574 54.5004 88.7888C54.469 88.8202 54.4376 88.8516 54.4062 88.8516C54.3748 88.8516 54.3748 88.9144 54.3748 88.9458C54.3748 88.9772 54.3748 89.0086 54.3748 89.04C54.3748 89.0714 54.3748 89.1028 54.4062 89.1342L54.94 90.767C54.9714 90.8612 55.0028 90.924 55.0028 90.9868C55.0342 91.0496 55.0342 91.1124 55.0656 91.1752C55.097 91.238 55.1598 91.3008 55.2226 91.3636C55.2854 91.395 55.3168 91.4578 55.3482 91.4892C55.3796 91.5206 55.3796 91.5834 55.3796 91.6776C55.3796 91.7718 55.3482 91.866 55.2854 91.8974C55.2226 91.9288 55.1598 91.9602 55.0656 91.9602H53.7782C53.684 91.9602 53.6212 91.9288 53.5584 91.8974C53.4956 91.866 53.4642 91.7718 53.4642 91.6776C53.4642 91.6148 53.4642 91.552 53.4956 91.4892C53.527 91.4578 53.5584 91.4264 53.5898 91.395C53.6212 91.3636 53.6526 91.3636 53.684 91.3322C53.7154 91.3008 53.7154 91.3008 53.7154 91.2694C53.7154 91.238 53.7154 91.2066 53.7154 91.2066C53.7154 91.1752 53.7154 91.1438 53.684 91.1438L53.5898 90.8612H52.3966V90.8926C52.3966 90.924 52.3652 90.9868 52.3338 91.0496C52.3024 91.1124 52.3024 91.1438 52.3024 91.2066C52.3024 91.2694 52.3338 91.3008 52.3652 91.3322C52.3966 91.3636 52.4594 91.395 52.4908 91.4264C52.5536 91.4578 52.585 91.4892 52.6164 91.552C52.8048 91.552 52.8048 91.6148 52.8048 91.709ZM52.6792 90.2332H53.4956L53.0874 88.883L52.6792 90.2332Z" fill="white"/>
<path d="M56.6037 88.2236H57.8283C57.8597 88.2236 57.9225 88.2236 57.9539 88.2236C57.9853 88.2236 58.0481 88.2236 58.0795 88.1922C58.1423 88.1922 58.1737 88.1608 58.2365 88.1608C58.2993 88.1608 58.3307 88.1294 58.3935 88.1294C58.5191 88.1294 58.6133 88.1608 58.6761 88.255C58.7389 88.3492 58.7703 88.4434 58.8017 88.569L58.9273 89.197C58.9273 89.2284 58.9273 89.2598 58.9273 89.3226C58.9273 89.4168 58.8959 89.4796 58.8331 89.5424C58.7703 89.6052 58.7075 89.6366 58.6133 89.6366C58.5505 89.6366 58.4877 89.6052 58.4249 89.5738C58.3935 89.511 58.3307 89.4482 58.2993 89.3854C58.2679 89.3226 58.2365 89.2284 58.2051 89.1656C58.1737 89.1028 58.1109 89.04 58.0795 88.9772C58.0167 88.9144 57.9539 88.9144 57.8597 88.9144H57.7969V91.1438C57.7969 91.2066 57.8283 91.2694 57.8597 91.3008C57.8911 91.3322 57.9225 91.3636 57.9853 91.395C58.0167 91.4264 58.0795 91.4578 58.1109 91.5206C58.1423 91.552 58.1737 91.6462 58.1737 91.709C58.1737 91.8032 58.1423 91.8974 58.0795 91.9288C58.0167 91.9602 57.9539 91.9916 57.8597 91.9916H56.5409C56.4467 91.9916 56.3839 91.9602 56.3211 91.9288C56.2583 91.866 56.2269 91.8032 56.2269 91.709C56.2269 91.6148 56.2583 91.552 56.2897 91.5206C56.3211 91.4892 56.3525 91.4264 56.4153 91.395C56.4467 91.3636 56.5095 91.3322 56.5409 91.3008C56.5723 91.2694 56.6037 91.2066 56.6037 91.1438V88.9144H56.5095C56.4153 88.9144 56.3211 88.9458 56.2583 88.9772C56.1955 89.04 56.1641 89.1028 56.1327 89.1656C56.1013 89.2284 56.0699 89.3226 56.0385 89.3854C56.0071 89.4482 55.9757 89.511 55.9443 89.5738C55.9129 89.6366 55.8501 89.6366 55.7559 89.6366C55.6617 89.6366 55.5989 89.6052 55.5361 89.5424C55.4733 89.4796 55.4419 89.4168 55.4419 89.3226C55.4419 89.2912 55.4419 89.2598 55.4419 89.197L55.5675 88.569C55.5989 88.4434 55.6303 88.3492 55.6931 88.255C55.7559 88.1608 55.8501 88.1294 55.9757 88.1294C56.0385 88.1294 56.0699 88.1294 56.1327 88.1608C56.1641 88.1608 56.2269 88.1922 56.2583 88.1922C56.3211 88.1922 56.3525 88.2236 56.4153 88.2236C56.5095 88.2236 56.5723 88.2236 56.6037 88.2236Z" fill="white"/>
<path d="M62.2561 90.8298C62.2561 90.7356 62.2561 90.6728 62.2561 90.5786C62.2561 90.4844 62.2561 90.4216 62.2247 90.3274L62.1305 89.1342C62.1305 89.04 62.0991 88.9772 62.0677 88.9458C62.0363 88.9144 61.9735 88.883 61.9107 88.8516C61.8165 88.8202 61.7537 88.7888 61.7223 88.7574C61.6909 88.726 61.6595 88.6632 61.6595 88.5376C61.6595 88.4434 61.6909 88.3806 61.7537 88.3178C61.8165 88.255 61.8793 88.2236 61.9735 88.2236H62.9469C63.0411 88.2236 63.1039 88.255 63.1667 88.3178C63.2295 88.3806 63.2609 88.4434 63.2609 88.5376C63.2609 88.6318 63.2295 88.6946 63.1981 88.726C63.1667 88.7574 63.1353 88.7888 63.0725 88.8202C63.0097 88.8516 62.9783 88.8516 62.9155 88.883C62.8527 88.9144 62.8213 88.9458 62.7899 88.9772C62.7585 89.0086 62.7271 89.0714 62.7271 89.1342V89.1656L62.8527 90.3274C62.8527 90.4216 62.8527 90.5158 62.8841 90.61C62.9155 90.7042 62.8841 90.7984 62.8841 90.8926C62.8841 91.1438 62.8213 91.3322 62.7271 91.5206C62.6329 91.709 62.4759 91.8032 62.2875 91.8974C62.0991 91.9916 61.9107 92.0544 61.7223 92.0858C61.5339 92.1172 61.3141 92.1486 61.1257 92.1486C60.9373 92.1486 60.7489 92.1172 60.5605 92.0858C60.3721 92.0544 60.2151 91.9916 60.0581 91.866C59.9011 91.7718 59.7755 91.6462 59.7127 91.4892C59.6499 91.3322 59.5871 91.1124 59.5871 90.8926C59.5871 90.7984 59.5871 90.7042 59.5871 90.61C59.5871 90.5158 59.6185 90.4216 59.6185 90.3274L59.6813 89.1656V89.1342C59.6813 89.0714 59.6499 89.04 59.6185 89.0086C59.5871 88.9772 59.5557 88.9772 59.4929 88.9458C59.4301 88.9458 59.3987 88.9144 59.3359 88.883C59.2731 88.8516 59.2417 88.8202 59.2103 88.7888C59.1789 88.7574 59.1475 88.6632 59.1475 88.6004C59.1475 88.5062 59.1789 88.4434 59.2417 88.3806C59.3045 88.3178 59.3673 88.2864 59.4615 88.2864H61.1257C61.2199 88.2864 61.2827 88.3178 61.3455 88.3806C61.4083 88.4434 61.4397 88.5062 61.4397 88.6004C61.4397 88.6946 61.4083 88.7574 61.3769 88.7888C61.3455 88.8202 61.3141 88.8516 61.2513 88.883C61.1885 88.9144 61.1571 88.9144 61.0943 88.9458C61.0315 88.9772 61.0001 89.0086 61.0001 89.04C60.9687 89.0714 60.9687 89.1028 60.9687 89.197L60.9059 90.0762C60.9059 90.2018 60.9059 90.3274 60.8745 90.453C60.8745 90.5786 60.8745 90.7042 60.8745 90.8298C60.8745 91.081 60.9373 91.2694 61.0629 91.3636C61.1885 91.4578 61.3769 91.5206 61.5967 91.5206C61.7223 91.5206 61.8479 91.4892 61.9421 91.4578C62.0363 91.4264 62.1305 91.3636 62.2247 91.2694C62.2247 91.081 62.2561 90.9868 62.2561 90.8298Z" fill="white"/>
<path d="M67.0604 89.5424C67.0604 89.7622 67.029 89.9192 66.9348 90.0448C66.8406 90.1704 66.715 90.296 66.558 90.3588L66.9348 91.1438C66.9662 91.2066 67.029 91.2694 67.0604 91.3322C67.1232 91.3636 67.1546 91.4264 67.186 91.4578C67.2174 91.5206 67.2488 91.5834 67.2488 91.6776C67.2488 91.7718 67.2174 91.866 67.1546 91.8974C67.0918 91.9288 67.029 91.9602 66.9348 91.9602H65.8358C65.6474 91.9602 65.5532 91.866 65.5532 91.6776C65.5532 91.6148 65.5846 91.5206 65.6474 91.4578C65.6474 91.4264 65.6474 91.4264 65.6474 91.395C65.6474 91.3636 65.6474 91.3636 65.6474 91.3322C65.6474 91.3008 65.6474 91.2694 65.616 91.1752C65.5846 91.081 65.5532 91.0182 65.5218 90.924C65.4904 90.8298 65.459 90.7356 65.4276 90.6728C65.3962 90.6728 65.3962 90.6728 65.3648 90.6728C65.2706 90.6728 65.145 90.6728 65.0508 90.6414V91.0496C65.0508 91.1124 65.0508 91.1438 65.0508 91.1438C65.0508 91.1438 65.0822 91.2066 65.1136 91.238C65.1764 91.3008 65.2078 91.3636 65.2392 91.4264C65.2706 91.4892 65.302 91.552 65.302 91.6462C65.302 91.7404 65.2706 91.8346 65.2078 91.866C65.145 91.8974 65.0822 91.9288 64.988 91.9288H63.732C63.6378 91.9288 63.575 91.8974 63.5122 91.866C63.4494 91.8346 63.418 91.7404 63.418 91.6462C63.418 91.552 63.4494 91.4892 63.4808 91.4264C63.5122 91.395 63.5436 91.3322 63.6064 91.3322C63.6378 91.3008 63.7006 91.2694 63.732 91.238C63.7634 91.2066 63.7948 91.1438 63.7948 91.0496V89.0714C63.7948 88.9772 63.7634 88.9458 63.732 88.883C63.7006 88.8516 63.6692 88.8202 63.6064 88.7888C63.575 88.7574 63.5122 88.726 63.4808 88.6946C63.4494 88.6632 63.418 88.569 63.418 88.4748C63.418 88.3806 63.4494 88.2864 63.5122 88.255C63.575 88.2236 63.6378 88.1922 63.732 88.1922H65.145C65.302 88.1922 65.459 88.1922 65.6474 88.2236C65.8044 88.255 65.9928 88.2864 66.1498 88.3492C66.3068 88.412 66.4638 88.4748 66.5894 88.6004C66.715 88.6946 66.8406 88.8202 66.9034 88.9772C67.029 89.1656 67.0604 89.354 67.0604 89.5424ZM65.0822 88.7888V90.2332C65.1136 90.2332 65.1764 90.2332 65.2078 90.2332C65.4276 90.2332 65.5532 90.1704 65.6474 90.0448C65.7416 89.9192 65.773 89.7622 65.773 89.5424C65.773 89.3226 65.7102 89.1656 65.5846 89.0086C65.459 88.8516 65.302 88.7888 65.1136 88.7888H65.0822Z" fill="white"/>
<path d="M67.5939 88.5376C67.5939 88.4434 67.6253 88.3492 67.6881 88.3178C67.7509 88.2864 67.8137 88.255 67.9079 88.255H69.6035C69.6349 88.255 69.6977 88.255 69.7919 88.255C69.8861 88.255 69.9175 88.2236 69.9803 88.2236C70.0117 88.2236 70.0431 88.2236 70.1059 88.1922C70.1373 88.1922 70.1687 88.1608 70.2315 88.1608C70.3571 88.1608 70.4513 88.1922 70.4827 88.255C70.5455 88.3178 70.5769 88.412 70.6083 88.5062C70.6397 88.6004 70.6711 88.6946 70.7025 88.7888C70.7339 88.8516 70.7339 88.9144 70.7653 89.0086C70.7967 89.0714 70.7967 89.1656 70.7967 89.2284C70.7967 89.3226 70.7653 89.3854 70.7025 89.4168C70.6397 89.4482 70.5769 89.4796 70.4827 89.4796C70.4199 89.4796 70.3571 89.4482 70.3257 89.4168C70.2943 89.3854 70.2629 89.3226 70.2315 89.2598C70.1687 89.1656 70.1373 89.0714 70.0745 89.0086C70.0431 88.9458 69.9803 88.9144 69.9175 88.883C69.8547 88.8516 69.7605 88.8516 69.6349 88.8516H69.2581V89.8564H69.4465C69.5407 89.8564 69.5721 89.825 69.6035 89.7936C69.6349 89.7622 69.6663 89.6994 69.6663 89.6366C69.6977 89.5738 69.6977 89.5424 69.7291 89.4796C69.7605 89.4168 69.8233 89.4168 69.9175 89.4168C69.9803 89.4168 70.0431 89.4482 70.0745 89.4796C70.1059 89.511 70.1373 89.5738 70.1687 89.6366L70.3257 90.3274C70.3257 90.3588 70.3257 90.3588 70.3257 90.3902C70.3257 90.4216 70.3257 90.4216 70.3257 90.453C70.3257 90.5472 70.2943 90.61 70.2629 90.6414C70.2001 90.7042 70.1373 90.7042 70.0745 90.7042C70.0117 90.7042 69.9803 90.7042 69.9489 90.6728C69.9175 90.6414 69.8861 90.61 69.8547 90.5786C69.7919 90.5158 69.7605 90.4844 69.7291 90.453C69.6977 90.4216 69.6663 90.4216 69.6349 90.4216C69.6035 90.4216 69.5407 90.4216 69.4779 90.4216H69.2267V90.9868C69.2267 91.1124 69.2581 91.238 69.3209 91.3322C69.3837 91.4264 69.5093 91.4578 69.6349 91.4578C69.7605 91.4578 69.8861 91.4578 69.9489 91.4264C70.0117 91.395 70.0745 91.3636 70.1373 91.3008C70.2001 91.238 70.2315 91.1438 70.2943 91.0182C70.3257 90.9554 70.3571 90.8926 70.3885 90.8612C70.4199 90.8298 70.4827 90.7984 70.5455 90.7984C70.6397 90.7984 70.7025 90.8298 70.7653 90.8612C70.8281 90.8926 70.8595 90.9868 70.8595 91.081C70.8595 91.1124 70.8595 91.1438 70.8281 91.2066L70.6711 91.7404C70.6397 91.866 70.6083 91.9602 70.5455 92.0544C70.4827 92.1486 70.3885 92.18 70.2629 92.18C70.2001 92.18 70.1687 92.18 70.1059 92.1486C70.0431 92.1486 70.0117 92.1172 69.9489 92.1172C69.8547 92.0858 69.7605 92.0858 69.6663 92.0858H67.8765C67.7823 92.0858 67.7195 92.0544 67.6567 92.023C67.5939 91.9916 67.5625 91.8974 67.5625 91.8032C67.5625 91.709 67.5939 91.6462 67.6253 91.5834C67.6567 91.552 67.7195 91.4892 67.7509 91.4892C67.8137 91.4578 67.8451 91.4264 67.8765 91.395C67.9079 91.3636 67.9393 91.3008 67.9393 91.2066V89.2284C67.9393 89.1656 67.9079 89.1028 67.8765 89.04C67.8451 89.0086 67.7823 88.9772 67.7509 88.9458C67.6881 88.9144 67.6567 88.883 67.6253 88.8202C67.6253 88.6946 67.5939 88.6318 67.5939 88.5376Z" fill="white"/>
<path d="M47.3724 98.7426C47.3096 98.7426 47.2154 98.7426 47.1526 98.7426C47.0898 98.7426 46.9956 98.7112 46.9328 98.7112C46.9014 98.7112 46.87 98.7112 46.8386 98.7112C46.8072 98.7112 46.7758 98.7112 46.7444 98.7112C46.6816 98.7112 46.6188 98.7112 46.5246 98.7426C46.4618 98.774 46.399 98.774 46.3048 98.774C46.2106 98.774 46.1478 98.7426 46.085 98.6798C46.0536 98.617 46.0222 98.5542 45.9908 98.46C45.9594 98.3344 45.9594 98.2402 45.928 98.1146C45.8966 97.989 45.8966 97.8948 45.8652 97.7692C45.8652 97.7378 45.8652 97.7378 45.8652 97.7064C45.8652 97.6122 45.8966 97.5494 45.9594 97.518C46.0222 97.4866 46.085 97.4552 46.1478 97.4552C46.2106 97.4552 46.2734 97.4866 46.3048 97.518C46.3676 97.5808 46.399 97.6122 46.4618 97.7064C46.5246 97.7692 46.556 97.832 46.6188 97.9262C46.6816 97.989 46.7444 98.0518 46.8386 98.1146C46.9328 98.1774 47.0584 98.1774 47.184 98.1774C47.2782 98.1774 47.341 98.146 47.4352 98.1146C47.5294 98.0832 47.5608 97.989 47.5608 97.8948C47.5608 97.832 47.5294 97.7692 47.498 97.7064C47.4666 97.675 47.4038 97.6436 47.341 97.6122C47.2782 97.5808 47.2154 97.5808 47.184 97.5494C46.9956 97.4866 46.8386 97.4238 46.6502 97.361C46.4932 97.2982 46.3362 97.204 46.2106 97.0784C46.085 96.9842 45.9594 96.8272 45.8966 96.6702C45.8024 96.5132 45.771 96.3248 45.771 96.0736C45.771 95.791 45.8338 95.5712 45.9594 95.4142C46.085 95.2572 46.242 95.1002 46.4304 95.006C46.6188 94.9118 46.8386 94.8804 47.0898 94.8804C47.1526 94.8804 47.2154 94.8804 47.3096 94.8804C47.3724 94.8804 47.4352 94.9118 47.5294 94.9118C47.5922 94.9118 47.655 94.9432 47.6864 94.9746C47.7178 95.006 47.812 95.006 47.8434 95.006C47.9062 95.006 47.969 94.9746 48.0318 94.9432C48.0946 94.9118 48.1574 94.8804 48.2202 94.8804C48.283 94.8804 48.3458 94.9118 48.3772 94.9432C48.4086 94.9746 48.44 95.0374 48.4714 95.1002C48.5028 95.163 48.5342 95.2258 48.5342 95.2886L48.7226 95.9794C48.7226 96.0108 48.754 96.0736 48.754 96.105C48.754 96.1992 48.7226 96.262 48.6598 96.3248C48.597 96.3876 48.5342 96.419 48.44 96.419C48.3772 96.419 48.3144 96.3876 48.283 96.3562C48.2516 96.3248 48.2202 96.262 48.1888 96.1992C48.0632 96.0108 47.9376 95.8538 47.812 95.7282C47.6864 95.6026 47.498 95.5398 47.2468 95.5398C47.1526 95.5398 47.0898 95.5712 47.027 95.6026C46.9642 95.634 46.9328 95.7282 46.9328 95.8224C46.9328 95.9166 46.9642 95.9794 46.9956 96.0422C47.0584 96.105 47.1212 96.1364 47.184 96.1678C47.2468 96.1992 47.3096 96.2306 47.3724 96.2306C47.5294 96.2934 47.6864 96.3562 47.8434 96.419C48.0004 96.4818 48.126 96.576 48.2516 96.6702C48.3772 96.7644 48.4714 96.89 48.5342 97.047C48.597 97.204 48.6284 97.3924 48.6284 97.5808C48.6284 97.8006 48.597 97.9576 48.5028 98.1146C48.44 98.2716 48.3144 98.3972 48.1888 98.4914C48.0632 98.5856 47.9062 98.6798 47.7492 98.7112C47.7178 98.7112 47.5294 98.7426 47.3724 98.7426Z" fill="white"/>
<path d="M50.4181 98.3658C50.4181 98.46 50.3867 98.5542 50.3239 98.5856C50.2611 98.617 50.1983 98.6484 50.1041 98.6484H49.3819C49.2877 98.6484 49.2249 98.617 49.1621 98.5856C49.0993 98.5542 49.0679 98.46 49.0679 98.3658C49.0679 98.2716 49.0993 98.2088 49.1307 98.1774C49.1621 98.146 49.2249 98.0832 49.2877 98.0204C49.3505 97.989 49.3819 97.9262 49.3819 97.8634C49.3819 97.8006 49.4133 97.7378 49.4447 97.675L50.0099 95.8224C50.0099 95.791 50.0413 95.7596 50.0413 95.7282C50.0413 95.6968 50.0413 95.6654 50.0413 95.634C50.0413 95.6026 50.0413 95.5712 50.0099 95.5398C49.9785 95.5084 49.9471 95.477 49.9157 95.477C49.8843 95.4456 49.8529 95.4142 49.8215 95.3828C49.7901 95.3514 49.7901 95.2886 49.7901 95.1944C49.7901 95.1002 49.8215 95.006 49.8843 94.9746C49.9471 94.9432 50.0099 94.9118 50.1041 94.9118H51.9253C52.0195 94.9118 52.0823 94.9432 52.1451 94.9746C52.2079 95.006 52.2393 95.1002 52.2393 95.1944C52.2393 95.2572 52.2393 95.32 52.2079 95.3514C52.1765 95.3828 52.1451 95.4142 52.1137 95.4456C52.0823 95.477 52.0509 95.5084 52.0195 95.5084C51.9881 95.5084 51.9881 95.5712 51.9881 95.6026C51.9881 95.634 51.9881 95.6654 51.9881 95.6968C51.9881 95.7282 51.9881 95.7596 52.0195 95.791L52.5533 97.4238C52.5847 97.518 52.6161 97.5808 52.6161 97.6436C52.6475 97.7064 52.6475 97.7692 52.6789 97.832C52.7103 97.8948 52.7731 97.9576 52.8359 98.0204C52.8987 98.0518 52.9301 98.1146 52.9615 98.146C52.9929 98.1774 52.9929 98.2402 52.9929 98.3344C52.9929 98.4286 52.9615 98.5228 52.8987 98.5542C52.8359 98.5856 52.7731 98.617 52.6789 98.617H51.3915C51.2973 98.617 51.2345 98.5856 51.1717 98.5542C51.1089 98.5228 51.0775 98.4286 51.0775 98.3344C51.0775 98.2716 51.0775 98.2088 51.1089 98.146C51.1403 98.1146 51.1717 98.0832 51.2031 98.0518C51.2345 98.0204 51.2659 98.0204 51.2973 97.989C51.3287 97.9576 51.3287 97.9576 51.3287 97.9262C51.3287 97.8948 51.3287 97.8634 51.3287 97.8634C51.3287 97.832 51.3287 97.8006 51.2973 97.8006L51.2031 97.518H50.0099V97.5494C50.0099 97.5808 49.9785 97.6436 49.9471 97.7064C49.9157 97.7692 49.9157 97.8006 49.9157 97.8634C49.9157 97.9262 49.9471 97.9576 49.9785 97.989C50.0099 98.0204 50.0727 98.0518 50.1041 98.0832C50.1669 98.1146 50.1983 98.146 50.2297 98.2088C50.3867 98.2088 50.4181 98.2716 50.4181 98.3658ZM50.2925 96.9214H51.1089L50.7007 95.5712L50.2925 96.9214Z" fill="white"/>
<path d="M53.4644 95.1944C53.4644 95.1002 53.4958 95.006 53.5586 94.9746C53.6214 94.9432 53.6842 94.9118 53.7784 94.9118H55.4426C55.5054 94.9118 55.5368 94.9118 55.5996 94.9118C55.6624 94.9118 55.6938 94.9118 55.7566 94.8804C55.8194 94.8804 55.8508 94.849 55.9136 94.849C55.9764 94.849 56.0078 94.8176 56.0706 94.8176C56.1648 94.8176 56.2276 94.849 56.2904 94.8804C56.3532 94.9118 56.3846 94.9746 56.416 95.0374C56.4474 95.1002 56.4788 95.163 56.5102 95.2572C56.5102 95.2572 56.5102 95.2572 56.5102 95.2886V95.32C56.5416 95.3828 56.5416 95.4456 56.573 95.5084C56.6044 95.6026 56.6044 95.6654 56.6358 95.7596C56.6672 95.8538 56.6672 95.9166 56.6672 95.9794C56.6672 96.0736 56.6358 96.1364 56.573 96.1678C56.5102 96.1992 56.4474 96.2306 56.3846 96.2306C56.3218 96.2306 56.259 96.1992 56.2276 96.1678C56.1962 96.1364 56.1648 96.0736 56.1334 96.0108C56.0706 95.8852 56.0392 95.791 55.9764 95.7282C55.945 95.6654 55.8822 95.6026 55.8194 95.5712C55.7566 95.5398 55.6624 95.5084 55.5054 95.5084H55.16V96.6388H55.4426C55.5368 96.6388 55.5996 96.6074 55.631 96.576C55.6624 96.5446 55.6938 96.4818 55.6938 96.419C55.7252 96.3562 55.7252 96.3248 55.7566 96.262C55.788 96.2306 55.8508 96.1992 55.945 96.1992C56.0706 96.1992 56.1648 96.262 56.1962 96.419L56.3532 97.1098C56.3532 97.1412 56.3532 97.1412 56.3532 97.1726C56.3532 97.204 56.3532 97.204 56.3532 97.2354C56.3532 97.2982 56.3218 97.3924 56.2904 97.4238C56.2276 97.4866 56.1648 97.4866 56.102 97.4866C56.0392 97.4866 56.0078 97.4866 55.9764 97.4552C55.945 97.4238 55.9136 97.3924 55.8822 97.361C55.8194 97.2982 55.788 97.2668 55.7566 97.2354C55.7252 97.204 55.6938 97.204 55.6624 97.204C55.631 97.204 55.5682 97.204 55.5054 97.204H55.1914V97.7692C55.1914 97.8634 55.2228 97.9262 55.2542 97.9576C55.2856 97.989 55.3484 98.0204 55.4112 98.0518C55.474 98.0832 55.5054 98.1146 55.5682 98.146C55.5996 98.1774 55.631 98.2716 55.631 98.3658C55.631 98.46 55.5996 98.5542 55.5368 98.5856C55.474 98.617 55.4112 98.6484 55.317 98.6484H53.8726C53.7784 98.6484 53.7156 98.617 53.6528 98.5856C53.59 98.5542 53.5586 98.46 53.5586 98.3658C53.5586 98.2716 53.59 98.2088 53.6214 98.146C53.6528 98.1146 53.7156 98.0518 53.747 98.0204C53.8098 97.989 53.8412 97.9576 53.8726 97.9262C53.904 97.8948 53.9354 97.832 53.9354 97.7692V95.791C53.9354 95.7282 53.904 95.6654 53.8726 95.634C53.8412 95.6026 53.7784 95.5712 53.747 95.5398C53.6842 95.5084 53.6528 95.477 53.6214 95.4142C53.4644 95.3514 53.4644 95.2886 53.4644 95.1944Z" fill="white"/>
<path d="M57.797 98.3658C57.797 98.46 57.7656 98.5542 57.7028 98.5856C57.64 98.617 57.5772 98.6484 57.483 98.6484H56.7608C56.6666 98.6484 56.6038 98.617 56.541 98.5856C56.4782 98.5542 56.4468 98.46 56.4468 98.3658C56.4468 98.2716 56.4782 98.2088 56.5096 98.1774C56.541 98.146 56.6038 98.0832 56.6666 98.0204C56.7294 97.989 56.7608 97.9262 56.7608 97.8634C56.7608 97.8006 56.7922 97.7378 56.8236 97.675L57.3888 95.8224C57.3888 95.791 57.4202 95.7596 57.4202 95.7282C57.4202 95.6968 57.4202 95.6654 57.4202 95.634C57.4202 95.6026 57.4202 95.5712 57.3888 95.5398C57.3574 95.5084 57.326 95.477 57.2946 95.477C57.2632 95.4456 57.2318 95.4142 57.2004 95.3828C57.169 95.3514 57.169 95.2886 57.169 95.1944C57.169 95.1002 57.2004 95.006 57.2632 94.9746C57.326 94.9432 57.3888 94.9118 57.483 94.9118H59.3042C59.3984 94.9118 59.4612 94.9432 59.524 94.9746C59.5868 95.006 59.6182 95.1002 59.6182 95.1944C59.6182 95.2572 59.6182 95.32 59.5868 95.3514C59.5554 95.3828 59.524 95.4142 59.4926 95.4456C59.4612 95.477 59.4298 95.5084 59.3984 95.5084C59.367 95.5084 59.367 95.5712 59.367 95.6026C59.367 95.634 59.367 95.6654 59.367 95.6968C59.367 95.7282 59.367 95.7596 59.3984 95.791L59.9322 97.4238C59.9636 97.518 59.995 97.5808 59.995 97.6436C60.0264 97.7064 60.0264 97.7692 60.0578 97.832C60.0892 97.8948 60.152 97.9576 60.2148 98.0204C60.2776 98.0518 60.309 98.1146 60.3404 98.146C60.3718 98.1774 60.3718 98.2402 60.3718 98.3344C60.3718 98.4286 60.3404 98.5228 60.2776 98.5542C60.2148 98.5856 60.152 98.617 60.0578 98.617H58.7704C58.6762 98.617 58.6134 98.5856 58.5506 98.5542C58.4878 98.5228 58.4564 98.4286 58.4564 98.3344C58.4564 98.2716 58.4564 98.2088 58.4878 98.146C58.5192 98.1146 58.5506 98.0832 58.582 98.0518C58.6134 98.0204 58.6448 98.0204 58.6762 97.989C58.7076 97.9576 58.7076 97.9576 58.7076 97.9262C58.7076 97.8948 58.7076 97.8634 58.7076 97.8634C58.7076 97.832 58.7076 97.8006 58.6762 97.8006L58.582 97.518H57.3888V97.5494C57.3888 97.5808 57.3574 97.6436 57.326 97.7064C57.2946 97.7692 57.2946 97.8006 57.2946 97.8634C57.2946 97.9262 57.326 97.9576 57.3574 97.989C57.3888 98.0204 57.4516 98.0518 57.483 98.0832C57.5458 98.1146 57.5772 98.146 57.6086 98.2088C57.7656 98.2088 57.797 98.2716 57.797 98.3658ZM57.6714 96.9214H58.4878L58.0796 95.5712L57.6714 96.9214Z" fill="white"/>
<path d="M64.3602 96.2306C64.3602 96.4504 64.3288 96.6074 64.2346 96.733C64.1404 96.8586 64.0148 96.9842 63.8578 97.047L64.2346 97.832C64.266 97.8948 64.3288 97.9576 64.3602 98.0204C64.423 98.0518 64.4544 98.1146 64.4858 98.146C64.5172 98.2088 64.5486 98.2716 64.5486 98.3658C64.5486 98.46 64.5172 98.5542 64.4544 98.5856C64.3916 98.617 64.3288 98.6484 64.2346 98.6484H63.1356C62.9472 98.6484 62.853 98.5542 62.853 98.3658C62.853 98.303 62.8844 98.2088 62.9472 98.146C62.9472 98.1146 62.9472 98.1146 62.9472 98.0832C62.9472 98.0518 62.9472 98.0518 62.9472 98.0204C62.9472 97.989 62.9472 97.9576 62.9158 97.8634C62.8844 97.7692 62.853 97.7064 62.8216 97.6122C62.7902 97.518 62.7588 97.4238 62.7274 97.361C62.696 97.361 62.696 97.361 62.6646 97.361C62.5704 97.361 62.4448 97.361 62.3506 97.3296V97.7378C62.3506 97.8006 62.3506 97.832 62.3506 97.832C62.3506 97.832 62.382 97.8948 62.4134 97.9262C62.4762 97.989 62.5076 98.0518 62.539 98.1146C62.5704 98.1774 62.6018 98.2402 62.6018 98.3344C62.6018 98.4286 62.5704 98.5228 62.5076 98.5542C62.4448 98.5856 62.382 98.617 62.2878 98.617H61.0318C60.9376 98.617 60.8748 98.5856 60.812 98.5542C60.7492 98.5228 60.7178 98.4286 60.7178 98.3344C60.7178 98.2402 60.7492 98.1774 60.7806 98.1146C60.812 98.0832 60.8434 98.0204 60.9062 98.0204C60.9376 97.989 61.0004 97.9576 61.0318 97.9262C61.0632 97.8948 61.0946 97.832 61.0946 97.7378V95.7596C61.0946 95.6654 61.0632 95.634 61.0318 95.5712C61.0004 95.5398 60.969 95.5084 60.9062 95.477C60.8748 95.4456 60.812 95.4142 60.7806 95.3828C60.7492 95.3514 60.7178 95.2572 60.7178 95.163C60.7178 95.0688 60.7492 94.9746 60.812 94.9432C60.8748 94.9118 60.9376 94.8804 61.0318 94.8804H62.4448C62.6018 94.8804 62.7588 94.8804 62.9472 94.9118C63.1042 94.9432 63.2926 94.9746 63.4496 95.0374C63.6066 95.1002 63.7636 95.163 63.8892 95.2886C64.0148 95.3828 64.1404 95.5084 64.2032 95.6654C64.2974 95.8224 64.3602 96.0108 64.3602 96.2306ZM62.3506 95.4456V96.89C62.382 96.89 62.4448 96.89 62.4762 96.89C62.696 96.89 62.8216 96.8272 62.9158 96.7016C63.01 96.576 63.0414 96.419 63.0414 96.1992C63.0414 95.9794 62.9786 95.8224 62.853 95.6654C62.7274 95.5084 62.5704 95.4456 62.382 95.4456H62.3506Z" fill="white"/>
<path d="M66.3381 95.791V97.7692C66.3381 97.832 66.3695 97.8948 66.4009 97.9262C66.4323 97.9576 66.4637 97.989 66.5265 98.0204C66.5579 98.0518 66.6207 98.0832 66.6521 98.1146C66.6835 98.146 66.7149 98.2402 66.7149 98.3344C66.7149 98.4286 66.6835 98.5228 66.6207 98.5542C66.5579 98.5856 66.4951 98.617 66.4009 98.617H65.0821C64.9879 98.617 64.9251 98.5856 64.8623 98.5542C64.7995 98.5228 64.7681 98.4286 64.7681 98.3344C64.7681 98.2402 64.7995 98.1774 64.8309 98.1146C64.8623 98.0832 64.8937 98.0204 64.9565 98.0204C64.9879 97.989 65.0507 97.9576 65.0821 97.9262C65.1135 97.8948 65.1449 97.832 65.1449 97.7378V95.7596C65.1449 95.6968 65.1135 95.634 65.0821 95.5712C65.0507 95.5398 65.0193 95.5084 64.9565 95.477C64.9251 95.4456 64.8623 95.4142 64.8309 95.3514C64.7995 95.32 64.7681 95.2258 64.7681 95.1316C64.7681 95.0374 64.7995 94.9432 64.8623 94.9118C64.9251 94.8804 64.9879 94.849 65.0821 94.849H66.4009C66.4951 94.849 66.5579 94.8804 66.6207 94.9118C66.6835 94.9746 66.7149 95.0374 66.7149 95.1316C66.7149 95.2258 66.6835 95.2886 66.6521 95.3514C66.6207 95.3828 66.5893 95.4456 66.5265 95.477C66.4951 95.5084 66.4323 95.5398 66.4009 95.5712C66.3695 95.6654 66.3381 95.7282 66.3381 95.791Z" fill="white"/>
<path d="M67.029 95.1944C67.029 95.1002 67.0604 95.006 67.1232 94.9746C67.186 94.9432 67.2488 94.9118 67.343 94.9118H69.0386C69.07 94.9118 69.1328 94.9118 69.227 94.9118C69.3212 94.9118 69.3526 94.8804 69.4154 94.8804C69.4468 94.8804 69.4782 94.8804 69.541 94.849C69.5724 94.849 69.6038 94.8176 69.6666 94.8176C69.7922 94.8176 69.8864 94.849 69.9178 94.9118C69.9806 94.9746 70.012 95.0688 70.0434 95.163C70.0748 95.2572 70.1062 95.3514 70.1376 95.4456C70.169 95.5084 70.169 95.5712 70.2004 95.6654C70.2318 95.7282 70.2318 95.8224 70.2318 95.8852C70.2318 95.9794 70.2004 96.0422 70.1376 96.0736C70.0748 96.105 70.012 96.1364 69.9178 96.1364C69.855 96.1364 69.7922 96.105 69.7608 96.0736C69.7294 96.0422 69.698 95.9794 69.6666 95.9166C69.6038 95.8224 69.5724 95.7282 69.5096 95.6654C69.4782 95.6026 69.4154 95.5712 69.3526 95.5398C69.2898 95.5084 69.1956 95.5084 69.07 95.5084H68.6932V96.5132H68.8816C68.9758 96.5132 69.0072 96.4818 69.0386 96.4504C69.07 96.419 69.1014 96.3562 69.1014 96.2934C69.1328 96.2306 69.1328 96.1992 69.1642 96.1364C69.1956 96.0736 69.2584 96.0736 69.3526 96.0736C69.4154 96.0736 69.4782 96.105 69.5096 96.1364C69.541 96.1678 69.5724 96.2306 69.6038 96.2934L69.7608 96.9842C69.7608 97.0156 69.7608 97.0156 69.7608 97.047C69.7608 97.0784 69.7608 97.0784 69.7608 97.1098C69.7608 97.204 69.7294 97.2668 69.698 97.2982C69.6352 97.361 69.5724 97.361 69.5096 97.361C69.4468 97.361 69.4154 97.361 69.384 97.3296C69.3526 97.2982 69.3212 97.2668 69.2898 97.2354C69.227 97.1726 69.1956 97.1412 69.1642 97.1098C69.1328 97.0784 69.1014 97.0784 69.07 97.0784C69.0386 97.0784 68.9758 97.0784 68.913 97.0784H68.6618V97.6436C68.6618 97.7692 68.6932 97.8948 68.756 97.989C68.8188 98.0832 68.9444 98.1146 69.07 98.1146C69.1956 98.1146 69.3212 98.1146 69.384 98.0832C69.4468 98.0518 69.5096 98.0204 69.5724 97.9576C69.6352 97.8948 69.6666 97.8006 69.7294 97.675C69.7608 97.6122 69.7922 97.5494 69.8236 97.518C69.855 97.4866 69.9178 97.4552 69.9806 97.4552C70.0748 97.4552 70.1376 97.4866 70.2004 97.518C70.2632 97.5494 70.2946 97.6436 70.2946 97.7378C70.2946 97.7692 70.2946 97.8006 70.2632 97.8634L70.1062 98.3972C70.0748 98.5228 70.0434 98.617 69.9806 98.7112C69.9178 98.8054 69.8236 98.8368 69.698 98.8368C69.6352 98.8368 69.6038 98.8368 69.541 98.8054C69.4782 98.8054 69.4468 98.774 69.384 98.774C69.2898 98.7426 69.1956 98.7426 69.1014 98.7426H67.3116C67.2174 98.7426 67.1546 98.7112 67.0918 98.6798C67.029 98.6484 66.9976 98.5542 66.9976 98.46C66.9976 98.3658 67.029 98.303 67.0604 98.2402C67.0918 98.2088 67.1232 98.146 67.186 98.146C67.2488 98.1146 67.2802 98.0832 67.3116 98.0518C67.343 98.0204 67.3744 97.9576 67.3744 97.8634V95.8852C67.3744 95.8224 67.343 95.7596 67.3116 95.6968C67.2802 95.634 67.2174 95.634 67.186 95.6026C67.1232 95.5712 67.0918 95.5398 67.0604 95.477C67.0604 95.3514 67.029 95.2886 67.029 95.1944Z" fill="white"/>
<path d="M72.1151 98.7426C72.0523 98.7426 71.9581 98.7426 71.8953 98.7426C71.8325 98.7426 71.7383 98.7112 71.6755 98.7112C71.6441 98.7112 71.6127 98.7112 71.5813 98.7112C71.5499 98.7112 71.5185 98.7112 71.4871 98.7112C71.4243 98.7112 71.3615 98.7112 71.2673 98.7426C71.2045 98.774 71.1417 98.774 71.0475 98.774C70.9533 98.774 70.8905 98.7426 70.8277 98.6798C70.7963 98.617 70.7649 98.5542 70.7335 98.46C70.7021 98.3344 70.7021 98.2402 70.6707 98.1146C70.6393 97.989 70.6393 97.8948 70.6079 97.7692C70.6079 97.7378 70.6079 97.7378 70.6079 97.7064C70.6079 97.6122 70.6393 97.5494 70.7021 97.518C70.7649 97.4866 70.8277 97.4552 70.8905 97.4552C70.9533 97.4552 71.0161 97.4866 71.0475 97.518C71.1103 97.5808 71.1417 97.6122 71.2045 97.7064C71.2673 97.7692 71.2987 97.832 71.3615 97.9262C71.4243 97.989 71.4871 98.0518 71.5813 98.1146C71.6755 98.1774 71.8011 98.1774 71.9267 98.1774C72.0209 98.1774 72.0837 98.146 72.1779 98.1146C72.2721 98.0832 72.3035 97.989 72.3035 97.8948C72.3035 97.832 72.2721 97.7692 72.2407 97.7064C72.2093 97.675 72.1465 97.6436 72.0837 97.6122C72.0209 97.5808 71.9581 97.5808 71.9267 97.5494C71.7383 97.4866 71.5813 97.4238 71.3929 97.361C71.2045 97.2982 71.0789 97.204 70.9533 97.0784C70.8277 96.9842 70.7021 96.8272 70.6393 96.6702C70.5451 96.5132 70.5137 96.3248 70.5137 96.0736C70.5137 95.791 70.5765 95.5712 70.7021 95.4142C70.8277 95.2258 70.9847 95.1002 71.1731 95.006C71.3615 94.9118 71.5813 94.8804 71.8325 94.8804C71.8953 94.8804 71.9581 94.8804 72.0523 94.8804C72.1151 94.8804 72.1779 94.9118 72.2721 94.9118C72.3349 94.9118 72.3977 94.9432 72.4291 94.9746C72.4919 95.006 72.5547 95.006 72.5861 95.006C72.6489 95.006 72.7117 94.9746 72.7745 94.9432C72.8373 94.9118 72.9001 94.8804 72.9629 94.8804C73.0257 94.8804 73.0885 94.9118 73.1199 94.9432C73.1513 94.9746 73.1827 95.0374 73.2141 95.1002C73.2455 95.163 73.2769 95.2258 73.2769 95.2886L73.4653 95.9794C73.4653 96.0108 73.4967 96.0736 73.4967 96.105C73.4967 96.1992 73.4653 96.262 73.4025 96.3248C73.3397 96.3876 73.2769 96.419 73.1827 96.419C73.1199 96.419 73.0571 96.3876 73.0257 96.3562C72.9943 96.3248 72.9629 96.262 72.9315 96.1992C72.8059 96.0108 72.6803 95.8538 72.5547 95.7282C72.4291 95.6026 72.2407 95.5398 71.9895 95.5398C71.8953 95.5398 71.8325 95.5712 71.7697 95.6026C71.7069 95.634 71.6755 95.7282 71.6755 95.8224C71.6755 95.9166 71.7069 95.9794 71.7383 96.0422C71.7697 96.105 71.8639 96.1364 71.9267 96.1678C71.9895 96.1992 72.0523 96.2306 72.1151 96.2306C72.2721 96.2934 72.4291 96.3562 72.5861 96.419C72.7431 96.4818 72.8687 96.576 72.9943 96.6702C73.1199 96.7644 73.2141 96.89 73.2769 97.047C73.3397 97.204 73.3711 97.3924 73.3711 97.5808C73.3711 97.8006 73.3397 97.9576 73.2455 98.1146C73.1827 98.2716 73.0571 98.3972 72.9315 98.4914C72.8059 98.5856 72.6489 98.6798 72.4919 98.7112C72.4605 98.7112 72.3035 98.7426 72.1151 98.7426Z" fill="white"/>
<mask id="mask18_287_224" style="mask-type:luminance" maskUnits="userSpaceOnUse" x="-11" y="-24" width="157" height="157">
<path d="M146 -24H-11V133H146V-24Z" fill="white"/>
</mask>
<g mask="url(#mask18_287_224)">
<path d="M79.8711 54.5628C79.9025 54.5314 79.8711 54.5314 79.8711 54.5628C79.9967 54.4686 80.0595 54.3744 80.0909 54.2802C79.9967 54.343 79.9339 54.4372 79.8711 54.5628ZM104.897 50.2296C104.865 50.261 104.834 50.3238 104.803 50.3552C104.834 50.3238 104.865 50.2924 104.897 50.2296ZM109.575 52.8044C109.544 52.9614 109.513 53.1498 109.544 53.2754C107.44 54.186 106.404 55.756 105.431 57.2946C105.274 57.5772 105.085 57.8284 104.897 58.111C104.551 58.6448 104.175 59.1158 103.735 59.5868C102.856 59.838 102.071 60.3404 101.411 60.8114C101.317 60.8742 101.192 60.9684 101.097 61.0312C100.689 61.1254 100.344 61.2824 99.9985 61.4394C99.7787 61.5336 99.5903 61.6278 99.3705 61.6906C98.9623 61.8476 98.7111 61.9732 98.5541 62.036C99.0565 61.1568 99.6531 60.309 100.187 59.4298C100.783 58.4878 101.255 57.5458 101.788 56.5724C101.945 56.2584 102.134 55.9758 102.291 55.6932C102.479 55.0966 102.699 54.5 102.856 53.872C102.981 53.3696 103.107 52.8672 103.264 52.3648C103.295 52.3334 103.295 52.3334 103.327 52.302C103.641 51.8938 103.829 51.4542 103.923 50.9832C104.237 50.7948 104.52 50.4494 104.74 50.1354C104.771 50.1354 104.771 50.104 104.803 50.104C102.856 48.5026 101.851 48.3456 101.317 48.5654C101.255 48.8794 101.192 49.1934 101.129 49.5074C101.097 49.633 101.066 49.7586 101.035 49.8842C100.689 51.4228 100.155 52.9614 99.2449 54.4058C98.9623 54.8454 98.6169 55.3164 98.2401 55.7874C97.6121 54.8768 97.1725 54.0604 96.9213 53.3068C96.4503 51.831 96.5759 50.2924 96.7015 48.8166C96.7329 48.5654 96.7329 48.3456 96.7643 48.0944C96.7643 48.0002 96.7643 47.9374 96.7957 47.8432C95.2885 47.0896 94.6919 46.3046 94.0011 46.5558C93.9069 46.5872 93.8127 46.65 93.6871 46.7756C93.9069 46.8698 94.0325 47.3722 94.2837 47.5292C94.3151 47.592 94.3151 47.6548 94.3465 47.7176L94.3779 47.8118C94.5349 48.063 94.6605 48.2828 94.7861 48.5026C94.8175 48.5968 94.8489 48.691 94.8803 48.7852C95.0373 49.319 95.1315 49.8214 95.1943 50.3238C95.1001 50.7948 95.0687 51.2658 95.2257 51.7368C95.2257 51.7682 95.2257 51.7682 95.2571 51.7682C95.2571 52.0822 95.2257 52.3648 95.2257 52.6788C95.2257 53.0556 95.2257 53.4324 95.2571 53.8092C95.3199 53.9976 95.3513 54.186 95.3827 54.3744C95.5083 55.0024 95.6339 55.599 95.8223 56.1956C96.0107 56.7294 96.1991 57.2632 96.3875 57.797L96.3561 57.8284C96.2619 57.7656 96.1677 57.7028 96.0107 57.6086C95.9165 57.5458 95.7909 57.483 95.6967 57.3888C95.5083 57.2632 95.3513 57.1376 95.1315 57.0434C95.0687 56.9806 95.0373 56.9178 94.9745 56.8864C94.6605 56.5096 94.3465 56.1642 93.9069 55.913C93.7499 55.599 93.6243 55.2536 93.5301 54.9082C93.4987 54.7198 93.4359 54.5628 93.4045 54.3744C93.1533 53.244 92.8707 52.0822 91.8031 51.203C91.7717 51.1716 91.6775 51.1716 91.6147 51.203C91.4577 51.0774 91.2693 50.9518 91.0495 50.8262C90.9553 50.7948 90.8925 50.7948 90.8611 50.7948C90.7983 50.8262 90.7669 50.889 90.7669 50.9832C90.7669 51.0146 90.7983 51.0774 90.8297 51.1088C92.3055 52.459 92.4311 53.9976 92.9963 55.599C93.2475 56.3212 93.6243 57.0434 94.1581 57.7028C94.4721 58.111 94.8803 58.5192 95.2571 58.9588C94.2837 59.8066 93.4673 60.2148 92.7451 60.1834C92.6509 60.1834 92.5881 60.2148 92.5253 60.2462C92.4939 60.2776 92.4939 60.309 92.4625 60.3404H92.4311C91.7403 59.5554 91.0181 58.7704 90.3273 57.9854C89.8563 57.4516 89.3853 56.9178 88.9457 56.3526C88.8201 56.1328 88.7259 55.8816 88.6317 55.6618C88.2549 54.5942 88.0665 53.4952 87.9095 52.3962C88.0037 52.4276 88.0979 52.3962 88.1293 52.3334C88.1293 52.302 88.1607 52.2706 88.1607 52.2078C88.1607 52.0822 88.1293 51.9252 88.0979 51.7996C88.0037 51.831 87.9409 51.8938 87.8153 51.9566C87.2501 52.2392 86.2767 52.7102 84.6753 53.5266C84.5497 53.5894 84.3927 53.6522 84.2671 53.715C84.2985 53.715 84.3299 53.6836 84.3613 53.6836C84.4869 53.8406 84.6125 53.9976 84.8009 54.1546C84.9893 54.4686 85.1777 54.7512 85.3661 55.0652C86.1197 56.2898 86.3395 57.7028 86.8733 58.9902C86.0883 58.5506 85.2719 58.1424 84.5811 57.64C83.1367 56.6352 81.9435 55.442 80.7189 54.343C80.7503 54.343 80.7503 54.343 80.7503 54.343C80.6247 54.2802 80.4677 54.2174 80.3107 54.2802C80.2479 54.3116 80.1851 54.3116 80.1537 54.3744C82.1633 56.3526 84.1101 58.3308 86.3081 60.1834C88.8829 62.35 91.0809 64.3596 91.6775 67.3112C91.9287 68.5986 91.9601 69.9488 92.0229 71.2362C92.0857 72.5236 92.3369 73.811 92.4939 75.0984C92.7765 77.3906 92.0229 79.2118 91.2379 81.0958H98.7111C98.6169 80.2166 98.4599 79.306 98.3971 78.4268C98.3971 78.3326 98.3971 78.2384 98.3971 78.1442C98.3971 77.9244 98.3657 77.7046 98.3657 77.4848C98.3657 76.2602 98.5227 75.0356 98.6483 73.8424C98.7425 72.398 99.1193 71.0164 98.9309 69.6034C98.7425 68.159 98.0517 66.5262 99.1193 65.2388C99.9985 64.2026 101.38 63.3862 102.542 62.507C103.704 61.5964 104.708 60.5916 105.588 59.524C107.472 57.2004 108.602 54.7826 112.464 53.4952C112.59 53.4638 112.653 53.3696 112.684 53.3068C111.114 52.8358 109.952 52.8358 109.575 52.8044Z" fill="#5F3420"/>
</g>
<mask id="mask19_287_224" style="mask-type:luminance" maskUnits="userSpaceOnUse" x="-11" y="-24" width="157" height="157">
<path d="M146 -24H-11V133H146V-24Z" fill="white"/>
</mask>
<g mask="url(#mask19_287_224)">
<path d="M91.2386 53.3068C91.1758 53.2754 91.113 53.2754 91.0816 53.2754C91.113 53.2754 91.1444 53.3068 91.1758 53.3068C91.3642 53.4324 91.5526 53.558 91.741 53.6836C91.741 53.6836 91.741 53.6836 91.7724 53.6836C91.6154 53.558 91.4584 53.4324 91.2386 53.3068ZM124.366 36.3194C124.02 36.1938 123.706 36.0682 123.361 35.9426C123.235 35.8484 123.078 35.7542 122.921 35.7856C122.858 35.7856 122.827 35.7856 122.764 35.7856C122.45 35.6914 122.105 35.6286 121.791 35.5658C121.791 35.503 121.822 35.4716 121.822 35.4088C121.822 34.9692 121.32 34.5924 120.692 34.4354C120.566 34.404 120.409 34.3726 120.284 34.3726C120.221 34.3098 120.127 34.247 120.064 34.2156C120.064 34.2156 120.064 34.2156 120.064 34.1842V34.1528C120.409 34.0272 120.692 33.8702 120.912 33.7132C121.288 33.462 120.786 32.9596 120.189 32.9282C120.095 32.9282 120.001 32.9282 119.907 32.9282C119.875 32.8654 119.781 32.8026 119.718 32.7398C119.844 32.4886 119.875 32.1746 119.687 31.7978C119.593 31.6094 119.31 31.4838 119.059 31.421C118.965 31.3896 118.839 31.3896 118.714 31.3896C118.745 31.2012 118.745 31.0128 118.714 30.793C118.651 30.5732 118.274 30.3848 117.96 30.3848C117.709 30.3848 117.489 30.3848 117.238 30.4162C117.301 30.1022 117.081 29.7568 116.421 29.4742C116.359 29.4428 116.327 29.4428 116.264 29.4114C116.359 28.909 116.139 28.438 115.322 28.1868C114.914 28.0612 114.6 28.0298 114.349 28.0612C114.443 27.9042 114.506 27.7158 114.506 27.5274C114.506 27.4018 114.38 27.2762 114.192 27.2134C114.161 27.1506 114.129 27.0878 114.066 27.025C114.255 26.7424 114.255 26.4598 113.972 26.1458C113.69 25.8318 113.344 25.612 112.967 25.5178C113.03 25.3294 113.03 25.141 112.842 24.9526C112.434 24.4816 111.554 24.3246 110.864 24.3874C110.738 24.1362 110.455 23.9478 109.922 23.7908C109.67 23.728 109.388 23.6966 109.105 23.6652C108.917 23.4768 108.634 23.3198 108.226 23.2256C106.939 22.8802 106.154 23.2256 105.808 23.7594C105.557 23.6338 105.274 23.5396 104.898 23.5082C104.898 23.5082 104.866 23.5082 104.835 23.5082C104.678 23.2884 104.427 23.0686 104.081 22.9116C102.762 22.315 101.789 23.0372 101.475 23.8536C100.816 23.8536 100.407 24.0734 100.188 24.4188C99.8422 24.1048 99.3084 23.9164 98.649 24.0106C98.3036 24.0734 98.0838 24.1676 97.9268 24.2932C97.7698 24.1676 97.5814 24.0734 97.3302 24.0106C96.3568 23.7594 95.4148 24.1048 94.881 24.6072C94.7554 24.513 94.6298 24.4502 94.4414 24.4188C93.9076 24.2618 93.4366 24.2618 93.0598 24.2932C92.9342 24.0734 92.7458 23.8536 92.4946 23.6652C92.4318 23.6024 92.3376 23.571 92.212 23.5396C92.1178 23.4454 92.055 23.3512 91.9608 23.257C91.8352 23.1314 91.4898 23.1 91.2386 23.1942C90.8304 23.3512 90.3594 23.6966 89.9512 24.0734C89.7 23.9164 89.386 23.7908 88.9778 23.6966C87.6904 23.4768 87.0938 23.885 86.9054 24.513C86.3716 24.1676 85.6808 24.0734 84.7388 24.4816C84.0794 24.7956 83.8596 25.2038 83.8596 25.6434C83.577 25.6434 83.263 25.7062 82.949 25.8632C82.2896 26.2086 82.0698 26.554 82.1012 26.9308C81.1278 26.6796 80.0916 26.711 79.5578 27.4332C79.2752 27.81 79.338 28.2182 79.652 28.595C78.9298 28.9404 78.553 29.4742 78.6786 29.9452C78.239 30.165 77.9878 30.479 77.9878 30.793C77.9878 30.8872 78.0192 30.9814 78.0506 31.0756C78.1762 31.3268 78.4588 31.4838 78.8356 31.578C78.71 31.6408 78.6158 31.7036 78.5216 31.7664C78.239 31.6094 77.925 31.5466 77.5796 31.578C77.4226 31.5466 77.2656 31.5152 77.1086 31.4838C76.8574 31.3582 76.5748 31.2326 76.2608 31.1698C76.0096 31.107 75.6328 31.264 75.5072 31.4524C75.0676 32.0804 75.099 32.6456 75.3502 33.148C74.4396 32.8026 73.372 32.7712 72.1788 33.462C72.116 33.4934 72.0218 33.5562 71.959 33.5876C71.9276 33.5876 71.8648 33.5876 71.8334 33.5876C71.645 33.619 71.4566 33.7132 71.331 33.8388C70.703 33.9644 70.1064 34.247 69.761 34.6866C69.4156 35.1262 69.447 35.503 69.6982 35.7856C69.0074 36.0368 68.5364 36.4764 68.3794 37.073C68.3166 37.3556 68.4108 37.5754 68.5678 37.7324C68.505 37.858 68.4736 38.015 68.4736 38.172C68.4422 38.6744 68.6934 38.8942 69.1016 38.9884C68.6934 39.3024 68.2538 39.7734 68.0654 40.213C67.7514 40.3386 67.4374 40.4642 67.1548 40.5898C66.9664 40.684 66.778 40.7468 66.5896 40.8724C65.3964 41.5004 64.3916 42.8192 65.522 43.3216C65.9302 43.51 66.4326 43.4786 66.9664 43.353C66.9664 43.4472 66.9664 43.5414 66.9664 43.6042L66.9036 43.6356C66.8408 43.667 66.778 43.667 66.7152 43.6984C66.6524 43.7298 66.5896 43.7612 66.5268 43.7926C66.4012 43.7298 66.2442 43.667 66.0872 43.667C65.8988 43.6356 65.7418 43.7926 65.7104 43.981C65.679 44.2008 65.7104 44.3892 65.8046 44.5776C65.7732 44.609 65.7732 44.6718 65.7418 44.7032C65.679 44.766 65.6476 44.8288 65.6162 44.8602C65.3022 44.923 64.9882 44.9858 64.7998 45.0172C64.5172 45.08 64.423 45.4254 64.6428 45.551C64.6742 45.551 64.7056 45.5824 64.7056 45.5824C64.266 45.9592 63.952 46.4616 64.1718 46.807C63.952 46.964 63.7636 47.121 63.5752 47.278C63.324 47.5292 63.01 47.9688 62.9158 48.3456C62.853 48.4398 62.853 48.534 62.8844 48.6282C62.8844 48.6596 62.8844 48.691 62.8844 48.7224C62.7902 48.848 62.7274 49.0364 62.696 49.2248C62.4134 49.633 62.2878 50.1354 62.539 50.8262C62.5704 50.9204 62.6646 50.9832 62.7274 51.046C62.5704 51.4228 62.539 51.7996 62.8216 52.2078C62.9472 52.3962 63.1042 52.4904 63.2612 52.5218C63.2298 52.7102 63.2926 52.8986 63.4182 53.0556C63.4496 53.087 63.481 53.1184 63.5124 53.1498C63.5124 53.2754 63.5124 53.401 63.5124 53.558C63.5438 53.7464 63.6694 53.9662 63.8264 53.9976C63.8892 53.9976 63.952 54.029 63.9834 54.029C63.9834 54.0918 63.9834 54.1546 63.9834 54.2174C63.9834 54.3744 64.109 54.5628 64.2346 54.5628C64.6428 54.6256 64.9254 54.4058 65.1766 54.1232C65.208 54.1546 65.2394 54.186 65.3022 54.2488C65.3336 54.4372 65.4592 54.5942 65.6476 54.7198C66.0558 55.0024 66.4012 54.4686 66.6524 53.9976C66.6838 54.0604 66.7152 54.0918 66.778 54.1232C66.8408 54.343 66.935 54.5314 67.1234 54.5628C67.249 54.5942 67.3432 54.5942 67.4374 54.5628C67.5316 54.6256 67.6258 54.5628 67.6572 54.4686C67.6572 54.4372 67.6572 54.4372 67.6572 54.4058C67.8142 54.2488 67.9712 53.9976 68.0968 53.7464C68.191 53.715 68.2538 53.6836 68.3166 53.6208L68.348 53.6522C68.4736 53.9662 68.6306 54.2174 68.8818 54.2488C69.3842 54.3116 69.6668 53.6208 70.0122 53.1184C70.0436 53.1184 70.0436 53.1184 70.075 53.087C70.1378 53.0556 70.2006 52.9614 70.2634 52.8986C70.4204 52.8672 70.6088 53.087 70.7972 53.244C70.7972 53.3382 70.8286 53.4324 70.8914 53.5266C70.9856 53.7464 71.2682 53.8092 71.488 53.715C71.4566 53.7464 71.4252 53.7464 71.4252 53.7778C71.2682 54.0604 71.2368 54.2802 71.3938 54.5628C71.5194 54.7826 71.8648 54.8454 72.0846 54.7198C72.2416 54.814 72.43 54.8454 72.587 54.814C72.6812 54.971 72.8696 55.0966 73.215 55.0966C73.4034 55.0966 73.6232 55.0024 73.7802 54.8768C73.8744 55.0652 74.157 55.128 74.3454 55.0338C74.3454 55.0652 74.3768 55.128 74.3768 55.1594C74.471 55.4106 74.8164 55.4106 75.0048 55.285C75.1618 55.1594 75.2874 55.0652 75.413 54.9082C75.4444 55.0338 75.5072 55.128 75.57 55.2536C75.6956 55.4734 76.041 55.599 76.2294 55.4106C76.4806 55.1594 76.5748 54.8768 76.6376 54.5942C76.669 54.6256 76.7318 54.657 76.7632 54.657C76.9202 55.0338 77.1714 55.3792 77.5168 55.6932C77.5796 55.756 77.6738 55.7874 77.7366 55.7874C77.7366 55.7874 77.7366 55.8188 77.768 55.8188C77.8622 55.913 78.0192 55.9444 78.1134 55.8816C78.1448 55.8502 78.1762 55.8188 78.2076 55.756C78.1762 55.913 78.1762 56.0386 78.2076 56.1956C78.239 56.4154 78.71 56.5724 78.8042 56.3526C78.8042 56.3526 78.8042 56.3212 78.8356 56.2898C78.9612 56.384 79.0554 56.5096 79.181 56.6038C79.3066 56.698 79.4636 56.7294 79.5892 56.7294C79.7148 56.8864 79.9974 56.9492 80.0916 56.855C80.1858 56.7922 80.2486 56.698 80.28 56.6038L80.2486 56.5724C80.3114 56.541 80.3428 56.5096 80.4056 56.4782C80.5626 56.4468 80.6882 56.4782 80.8138 56.541C80.8452 56.541 80.8452 56.541 80.8766 56.541C81.0022 56.5724 81.1278 56.5724 81.222 56.5096C81.5046 56.227 81.536 55.7874 81.5046 55.3478C81.536 55.3478 81.5988 55.3478 81.6302 55.3478C81.6616 55.3792 81.6616 55.4106 81.693 55.442C81.7872 55.5362 81.9128 55.5676 82.007 55.5362C82.1954 55.6932 82.4152 55.8502 82.635 55.9444C82.7292 56.227 82.8862 56.4782 83.0432 56.7294C83.1374 56.8864 83.42 57.012 83.5142 56.9178C83.7026 56.7608 83.7654 56.541 83.7968 56.2898C83.8282 56.1956 83.8282 56.1014 83.8282 56.0072C83.8596 55.9758 83.9224 55.913 83.9224 55.8502C84.1108 55.9444 84.2992 55.9444 84.4562 55.913C84.4248 55.913 84.3934 55.9444 84.362 55.9444C84.4876 55.8816 84.6132 55.8188 84.7702 55.756C86.403 54.971 87.3764 54.5 87.9102 54.2174C88.0044 54.1546 88.0986 54.1232 88.1928 54.0604C88.2242 54.186 88.2242 54.343 88.2556 54.4686C88.2556 54.5 88.2556 54.5628 88.2242 54.5942C88.1928 54.6256 88.1614 54.6884 88.0986 54.6884C88.2242 54.7198 88.287 54.6256 88.287 54.5C88.2556 54.2802 88.2242 54.029 88.1614 53.8092C88.601 54.5942 89.229 55.1908 89.4802 54.4058C89.5744 54.1546 89.4802 53.715 89.3232 53.3068C89.3232 53.3068 89.3232 53.3068 89.3546 53.3068C89.386 53.3068 89.4174 53.3068 89.4488 53.3068C89.6372 53.2754 89.7628 53.0556 89.7942 52.773C89.8256 52.7416 89.857 52.6788 89.857 52.616C89.857 52.5532 89.857 52.459 89.857 52.3962C89.8884 52.459 89.8884 52.5218 89.9198 52.5846C90.1082 52.9614 90.6106 53.3696 90.8618 53.2126C90.8932 53.2126 90.8932 53.1812 90.9246 53.1812C90.956 53.1498 90.9874 53.1184 91.0188 53.0556C91.1444 52.7102 91.0502 52.2078 90.9246 51.7054C90.956 51.7368 90.9874 51.7682 91.0502 51.7996C91.1758 51.8624 91.3014 51.7996 91.3328 51.6426C91.3956 51.3286 91.3642 51.0146 91.3014 50.6692C91.3956 50.7634 91.4584 50.8576 91.5526 50.9204C91.6782 51.046 91.8666 50.9518 91.8666 50.7634C91.8666 50.4808 91.8352 50.1668 91.741 49.8842C91.7724 49.8528 91.8038 49.79 91.8038 49.7272C91.8038 49.6644 91.8038 49.6016 91.8038 49.5388C91.8352 49.7586 91.9294 49.9156 92.0864 50.0098C92.526 50.2296 93.0284 49.6644 93.4994 49.319C93.5308 49.319 93.5308 49.319 93.5622 49.319C93.6564 49.2876 93.7192 49.2562 93.782 49.1934C93.9076 49.0992 93.9704 49.0364 94.0646 49.005C94.7554 48.7538 95.3206 49.5074 96.7964 50.261C96.7964 50.2296 96.8278 50.1982 96.8278 50.1982C96.8278 50.1982 96.8906 50.1354 96.922 50.1668C96.922 50.1668 96.922 50.1668 96.922 50.1982C96.922 50.1354 96.922 50.104 96.922 50.0412C96.922 50.1354 96.9534 50.2296 97.0476 50.3238C97.3616 50.575 97.7384 50.575 98.178 50.3238C98.178 50.7634 98.3664 51.1402 98.8374 50.9832C99.3398 50.8576 99.6852 50.4494 99.9992 50.0098C100.156 50.0412 100.345 50.0098 100.533 49.9784C100.533 50.0412 100.533 50.104 100.564 50.1354C100.502 50.261 100.502 50.3866 100.502 50.5436C100.376 50.7948 100.25 51.046 100.125 51.2972C100.031 51.4856 99.9678 51.6426 99.8736 51.831C100.031 51.5484 100.156 51.2658 100.313 50.9518C100.376 50.8262 100.439 50.7006 100.502 50.575C100.502 50.6378 100.533 50.7006 100.533 50.7634C100.533 50.7634 100.533 50.7634 100.533 50.7948C100.533 50.9204 100.564 51.046 100.659 51.046C100.721 51.046 100.784 51.046 100.816 51.046C100.941 51.0774 101.13 51.0774 101.287 51.0146C101.82 50.7948 102.794 50.9518 104.741 52.5532H104.772C104.803 52.5532 104.803 52.5532 104.803 52.5532C104.835 52.5532 104.898 52.5532 104.929 52.5532C104.458 53.2126 104.113 53.9662 104.395 54.4686C104.427 54.5314 104.552 54.5 104.615 54.4686C104.678 54.4058 104.741 54.343 104.803 54.2802C104.803 54.6884 105.023 55.128 105.494 54.8768C105.714 54.7512 105.871 54.5314 106.028 54.2802C106.059 54.3116 106.091 54.3744 106.122 54.4058C106.185 54.5 106.342 54.4372 106.468 54.343C106.499 54.5628 106.562 54.7198 106.782 54.7512C106.844 54.7512 106.939 54.7512 107.001 54.7512C107.001 55.0024 107.033 55.2536 107.158 55.4106C107.221 55.5048 107.41 55.5048 107.535 55.3792C107.598 55.3164 107.692 55.2536 107.755 55.1908C107.786 55.285 107.849 55.3792 107.943 55.4734C108.038 55.5362 108.163 55.5048 108.289 55.4106C108.446 55.3164 108.603 55.1908 108.728 55.0652C108.823 55.1594 108.948 55.2222 109.137 55.1908C109.294 55.1908 109.419 55.1594 109.545 55.0966H109.576C109.576 55.128 109.545 55.1594 109.545 55.1908C109.984 55.1908 111.083 55.2222 112.496 55.5362C112.528 55.5362 112.559 55.5048 112.559 55.5048C112.559 55.5048 112.559 55.5048 112.559 55.4734C112.622 55.442 112.716 55.442 112.81 55.4106C112.873 55.4106 112.936 55.442 112.999 55.442C113.281 55.4734 113.752 55.1594 114.161 54.9396C114.255 55.0338 114.38 55.128 114.506 55.1908C114.726 55.3164 115.071 55.1594 115.134 54.9396C115.134 54.8768 115.165 54.8454 115.165 54.7826C115.354 54.8768 115.511 54.9082 115.699 54.9082C115.919 55.0024 116.17 55.0338 116.484 54.971C116.578 54.9396 116.673 54.9082 116.767 54.8768C117.018 54.971 117.269 55.0024 117.552 54.971C118.117 54.9082 118.368 54.657 118.431 54.343C118.525 54.3744 118.619 54.4058 118.714 54.4372C118.902 54.4686 119.153 54.343 119.153 54.186C119.153 54.029 119.153 53.872 119.122 53.715C119.185 53.5894 119.216 53.401 119.185 53.244C119.404 53.3382 119.624 53.4324 119.875 53.4952C120.127 53.558 120.409 53.4952 120.441 53.2754C120.472 53.1184 120.441 52.93 120.409 52.773C121.131 53.1812 121.948 53.401 122.419 52.9614C122.984 52.3962 122.67 51.7368 122.011 51.1716C122.45 51.1402 122.796 50.9518 122.89 50.4808C122.953 50.104 122.607 49.7586 122.105 49.5074C122.23 49.3504 122.168 49.0678 121.822 48.6282C121.791 48.5968 121.759 48.5654 121.697 48.534C121.728 48.4398 121.728 48.3456 121.728 48.2514L121.697 48.22C121.759 48.1258 121.791 48.0316 121.791 47.8746C121.791 47.8432 121.759 47.8118 121.759 47.8118C122.482 47.9688 123.204 48.0316 123.863 47.906C124.083 47.8746 124.146 47.592 123.989 47.435C123.957 47.4036 123.926 47.3408 123.863 47.3094C123.895 47.278 123.895 47.2152 123.895 47.1524C123.895 46.9954 123.863 46.8698 123.8 46.7442C123.8 46.7442 123.8 46.7128 123.832 46.7128C123.926 46.493 124.052 46.2418 124.114 46.022C123.989 45.865 123.832 45.6766 123.769 45.5824C123.738 45.4882 123.675 45.4254 123.612 45.2998C123.298 44.8288 122.701 44.452 122.011 44.2008C121.916 44.0752 121.822 43.981 121.665 43.8868C121.634 43.8554 121.602 43.824 121.571 43.7926C121.508 43.7298 121.445 43.6356 121.351 43.5728C121.948 43.5728 122.387 43.4786 122.387 43.0704C122.387 42.6936 122.136 42.3482 121.759 42.0656C122.325 42.0342 122.921 41.9714 123.392 41.8144C123.581 41.7516 123.581 41.5318 123.455 41.3434C123.612 41.2806 123.769 41.1864 123.895 41.0922C124.052 40.9666 123.926 40.7468 123.675 40.5898C123.612 40.5584 123.518 40.4956 123.424 40.4642C123.455 40.4328 123.455 40.37 123.455 40.3072C123.455 40.1816 123.329 40.0246 123.172 39.9618C122.89 39.8048 122.544 39.6792 122.199 39.5536C122.827 39.4594 123.298 39.2396 123.455 38.8C123.518 38.6116 123.361 38.3604 123.078 38.2348C122.953 38.172 122.827 38.1406 122.733 38.1092C122.921 38.0464 123.141 37.9836 123.298 37.8894C123.455 37.7952 123.486 37.6068 123.298 37.4184C123.769 37.2928 124.146 37.1358 124.397 36.8218C124.774 36.6962 124.68 36.445 124.366 36.3194Z" fill="#00874A"/>
<path d="M73.7177 54.5628C73.6235 54.5942 73.5293 54.6256 73.4351 54.6256C73.0897 54.6256 72.9013 54.5314 72.8071 54.343C72.6501 54.4058 72.4303 54.343 72.2733 54.2488C72.0221 54.3744 71.7081 54.3116 71.5511 54.0918C71.3941 53.8092 71.3941 53.5894 71.5825 53.3068C71.6139 53.2754 71.6453 53.2754 71.6453 53.244C71.4255 53.3382 71.1429 53.2754 71.0487 53.0556C70.9859 52.9614 70.9545 52.8672 70.9545 52.773C70.7661 52.616 70.5777 52.3962 70.3893 52.4276C70.3265 52.4904 70.2951 52.5846 70.2009 52.616C70.1695 52.6474 70.1695 52.6474 70.1381 52.6474C69.7927 53.1498 69.4787 53.8406 68.9763 53.7778C68.7251 53.7464 68.5681 53.4952 68.4425 53.1812C68.4425 53.1498 68.4111 53.1498 68.4111 53.1498C68.3483 53.2126 68.2855 53.244 68.1913 53.2754C68.0657 53.5266 67.9087 53.7778 67.7203 53.9348C67.7203 53.9662 67.7203 53.9662 67.7203 53.9976C67.6889 54.0918 67.5633 54.1546 67.5005 54.0918C67.4063 54.1232 67.2807 54.1232 67.1865 54.0918C67.0295 54.029 66.9039 53.8406 66.8411 53.6208C66.7783 53.5894 66.7469 53.5266 66.7155 53.4638C66.4329 53.9662 66.0875 54.4686 65.6793 54.2174C65.4909 54.0918 65.3653 53.9034 65.3339 53.715C65.3025 53.6836 65.2397 53.6522 65.2083 53.5894C64.9571 53.9034 64.6745 54.1232 64.2349 54.0604C64.0779 54.029 63.9837 53.872 63.9837 53.6836C63.9837 53.6208 63.9837 53.558 63.9837 53.4952C63.9209 53.4952 63.8895 53.4952 63.8267 53.4638C63.6697 53.4324 63.5441 53.2126 63.5127 53.0242C63.4813 52.8672 63.4813 52.7416 63.5127 52.616C63.4813 52.5846 63.4499 52.5532 63.4185 52.5218C63.2929 52.3334 63.2615 52.145 63.2615 51.988C63.1045 51.9566 62.9475 51.8624 62.8219 51.674C62.5393 51.2972 62.6021 50.889 62.7277 50.5122C62.6335 50.4494 62.5707 50.3866 62.5393 50.2924C62.2881 49.6016 62.3823 49.0992 62.6963 48.6596C62.7591 48.4712 62.8219 48.2828 62.8847 48.1572C62.8847 48.1258 62.8847 48.0944 62.8847 48.063C62.8533 47.9688 62.8533 47.8746 62.9161 47.7804C63.0103 47.4036 63.3243 46.964 63.6069 46.6814C63.7639 46.5244 63.9837 46.336 64.2035 46.179C63.9837 45.8336 64.2977 45.3312 64.7373 44.9544C64.7059 44.9544 64.6745 44.923 64.6745 44.923C64.6745 44.923 64.6431 44.923 64.6431 44.8916C64.4547 44.766 64.5803 44.4206 64.8315 44.3892C65.0199 44.3578 65.3339 44.295 65.6479 44.2322C65.6793 44.1694 65.7421 44.1066 65.7735 44.0752C65.8049 44.0438 65.8049 43.981 65.8363 43.9496C65.7421 43.7612 65.7107 43.5728 65.7421 43.353C65.7735 43.1646 65.9305 43.0076 66.1503 43.039C66.3073 43.0704 66.4643 43.1018 66.5899 43.196C66.6527 43.1646 66.7155 43.1332 66.7783 43.1018C66.8411 43.0704 66.9039 43.0704 66.9667 43.039L67.0295 42.9762C67.0295 42.882 66.9981 42.7878 67.0295 42.6936C66.4957 42.8192 65.9933 42.8506 65.5537 42.6622C64.3919 42.1284 65.4281 40.8096 66.6527 40.1502C66.8411 40.056 67.0295 39.9618 67.2493 39.8676C67.5319 39.7106 67.8459 39.585 68.1599 39.4594C68.3483 39.0198 68.7879 38.5488 69.2275 38.2348C68.8193 38.1406 68.5681 37.8894 68.5995 37.387C68.5995 37.23 68.6623 37.1044 68.7251 36.9474C68.5681 36.7904 68.4739 36.5706 68.5367 36.2566C68.6309 35.7542 68.9763 35.3774 69.4787 35.1262C69.5729 35.0634 69.6671 35.032 69.7613 34.9692C69.7927 34.9692 69.8241 34.9378 69.8555 34.9378C69.6043 34.6552 69.5729 34.2784 69.9183 33.8074C70.2637 33.3364 70.8917 33.0852 71.5197 32.9282C71.6453 32.8026 71.8651 32.7084 72.0535 32.677C72.0849 32.677 72.1477 32.677 72.1791 32.6456C72.2419 32.6142 72.3361 32.5514 72.3989 32.52C73.6235 31.8292 74.7225 31.892 75.6331 32.206C75.3819 31.7036 75.3505 31.1384 75.7901 30.479C75.9157 30.2906 76.3239 30.165 76.5751 30.1964C76.8891 30.2592 77.1717 30.3848 77.4543 30.5104C77.6113 30.5104 77.7683 30.5418 77.9253 30.6046C78.2707 30.5732 78.5847 30.636 78.8673 30.793C78.9615 30.7302 79.0557 30.6674 79.1813 30.6046C78.8045 30.5104 78.5219 30.3534 78.3963 30.1022C78.3335 30.008 78.3335 29.9138 78.3335 29.8196C78.3335 29.4742 78.6161 29.1602 79.0557 28.9404C78.9929 28.7834 79.0243 28.595 79.1185 28.4066C79.2755 28.0926 79.5895 27.7786 80.0605 27.5902C79.7465 27.182 79.6837 26.7738 79.9663 26.397C80.5315 25.6748 81.5677 25.6434 82.5725 25.8946C82.5411 25.7062 82.6039 25.4864 82.7609 25.298C82.8237 25.2352 82.8865 25.141 83.0121 25.0782" stroke="white" stroke-miterlimit="10"/>
</g>
</g>
<defs>
<linearGradient id="paint0_linear_287_224" x1="56.5429" y1="80.9774" x2="56.5429" y2="105.568" gradientUnits="userSpaceOnUse">
<stop stop-color="#FFBF0B"/>
<stop offset="1" stop-color="#FB5507"/>
</linearGradient>
<linearGradient id="paint1_linear_287_224" x1="58.0524" y1="84.9008" x2="58.0524" y2="98.4665" gradientUnits="userSpaceOnUse">
<stop stop-color="#FFBF0B"/>
<stop offset="1" stop-color="#FE9C0A"/>
</linearGradient>
<clipPath id="clip0_287_224">
<rect width="121" height="121" fill="white"/>
</clipPath>
</defs>
</svg>
