<svg width="223" height="18" viewBox="0 0 223 18" fill="none" xmlns="http://www.w3.org/2000/svg">
<path d="M219.155 16.8934V1.45508H221.042V16.8934H219.155Z" fill="#586356"/>
<path d="M216.014 16.8934H213.995L209.855 9.30187H209.455H206.658V16.8934H204.771V1.45508H210.177C211.997 1.45508 213.317 1.75844 214.139 2.36517C214.968 2.9719 215.382 3.92639 215.382 5.22864C215.382 6.4643 214.927 7.42619 214.017 8.11431C213.107 8.80243 211.827 9.19088 210.177 9.27967L210.365 9.57934H212.086L216.014 16.8934ZM206.658 8.98001H209.455C210.905 8.98001 211.941 8.66184 212.563 8.02552C213.184 7.38179 213.495 6.4643 213.495 5.27304C213.495 4.7403 213.436 4.27415 213.317 3.8746C213.199 3.46765 213.003 3.10139 212.729 2.77583C212.455 2.45026 212.067 2.20239 211.564 2.03221C211.068 1.86203 210.461 1.77694 209.744 1.77694H206.658V8.98001Z" fill="#586356"/>
<path d="M200.354 16.8934L198.833 13.2308H191.031C190.402 15.162 190.061 16.3828 190.01 16.8934H189.011C189.595 15.4801 190.487 13.2271 191.686 10.1342C192.884 7.034 193.75 4.81796 194.283 3.48611L195.282 1H195.559L202.263 16.8934H200.354ZM191.119 12.92H198.689L194.738 3.48611H194.649C193.236 6.90452 192.059 10.0492 191.119 12.92Z" fill="#586356"/>
<path d="M181.108 1.45508H189.51V2.34298C188.171 1.96562 186.021 1.77694 183.062 1.77694H182.995V8.82462C185.429 8.77283 187.231 8.68034 188.4 8.54716V9.41286C186.743 9.23528 184.941 9.14649 182.995 9.14649V16.8934H181.108V1.45508Z" fill="#586356"/>
<path d="M176.692 16.8934L175.171 13.2308H167.369C166.74 15.162 166.399 16.3828 166.348 16.8934H165.349C165.933 15.4801 166.825 13.2271 168.023 10.1342C169.222 7.034 170.088 4.81796 170.621 3.48611L171.619 1H171.897L178.6 16.8934H176.692ZM167.457 12.92H175.027L171.076 3.48611H170.987C169.574 6.90452 168.397 10.0492 167.457 12.92Z" fill="#586356"/>
<path d="M158.567 17.2374C157.738 17.2374 156.91 17.1375 156.081 16.9377C155.26 16.738 154.616 16.5271 154.15 16.3051V15.2063C155.26 16.3458 156.747 16.9155 158.612 16.9155C159.84 16.9155 160.835 16.6381 161.597 16.0831C162.367 15.5282 162.751 14.7846 162.751 13.8523C162.751 13.6081 162.729 13.3788 162.685 13.1642C162.64 12.9496 162.589 12.7572 162.529 12.587C162.47 12.4169 162.378 12.2504 162.252 12.0876C162.126 11.9174 162.011 11.7731 161.908 11.6548C161.812 11.5364 161.664 11.4106 161.464 11.2774C161.264 11.1368 161.101 11.0258 160.976 10.9444C160.85 10.863 160.657 10.7595 160.398 10.6337C160.14 10.5079 159.936 10.4154 159.788 10.3562C159.647 10.2896 159.429 10.1897 159.133 10.0565L157.812 9.45721C157.339 9.24263 156.936 9.04285 156.603 8.85787C156.277 8.6729 155.955 8.45462 155.637 8.20305C155.319 7.94408 155.064 7.67401 154.871 7.39284C154.686 7.10428 154.535 6.76392 154.416 6.37176C154.305 5.97961 154.25 5.54676 154.25 5.07321C154.25 4.41469 154.383 3.83016 154.649 3.31962C154.923 2.80907 155.297 2.39842 155.77 2.08766C156.244 1.7695 156.78 1.52902 157.38 1.36624C157.986 1.20346 158.637 1.12207 159.333 1.12207C159.984 1.12207 160.639 1.19976 161.297 1.35514C161.956 1.51053 162.5 1.6955 162.929 1.91008V3.00885C161.908 1.95817 160.702 1.43283 159.311 1.43283C158.63 1.43283 158.016 1.52162 157.468 1.6992C156.928 1.87678 156.473 2.18755 156.103 2.6315C155.741 3.06804 155.559 3.61558 155.559 4.27411C155.559 4.71805 155.622 5.10651 155.748 5.43947C155.874 5.77243 156.085 6.0758 156.381 6.34956C156.677 6.61593 156.991 6.84531 157.324 7.03769C157.657 7.23006 158.101 7.45574 158.656 7.71471L159.977 8.30294C160.376 8.48792 160.702 8.6396 160.953 8.75799C161.205 8.87637 161.49 9.02805 161.808 9.21303C162.134 9.39801 162.393 9.56819 162.585 9.72357C162.785 9.87896 162.988 10.0713 163.195 10.3007C163.41 10.5227 163.573 10.7558 163.684 10.9999C163.802 11.2367 163.898 11.5105 163.972 11.8212C164.046 12.1246 164.083 12.4576 164.083 12.8201C164.083 13.7672 163.832 14.5811 163.329 15.2618C162.825 15.9352 162.163 16.4346 161.342 16.7602C160.528 17.0783 159.603 17.2374 158.567 17.2374Z" fill="#586356"/>
<path d="M139.844 16.5715C141.79 16.5715 143.203 16.5345 144.084 16.4605C144.971 16.3865 145.819 16.2349 146.625 16.0055V16.8934H137.713V1.45508H146.115V2.34298C144.775 1.96562 142.626 1.77694 139.666 1.77694H139.6V9.0022C142.108 8.95041 143.91 8.86162 145.005 8.73584V9.60153C143.281 9.41656 141.479 9.32407 139.6 9.32407V16.5715H139.844Z" fill="#586356"/>
<path d="M134.572 16.8934H132.552L128.412 9.30187H128.012H125.215V16.8934H123.329V1.45508H128.734C130.554 1.45508 131.875 1.75844 132.696 2.36517C133.525 2.9719 133.939 3.92639 133.939 5.22864C133.939 6.4643 133.484 7.42619 132.574 8.11431C131.664 8.80243 130.384 9.19088 128.734 9.27967L128.922 9.57934H130.643L134.572 16.8934ZM125.215 8.98001H128.012C129.463 8.98001 130.498 8.66184 131.12 8.02552C131.741 7.38179 132.052 6.4643 132.052 5.27304C132.052 4.7403 131.993 4.27415 131.875 3.8746C131.756 3.46765 131.56 3.10139 131.286 2.77583C131.013 2.45026 130.624 2.20239 130.121 2.03221C129.625 1.86203 129.019 1.77694 128.301 1.77694H125.215V8.98001Z" fill="#586356"/>
<path d="M113.251 17.2374C109.219 17.2374 107.203 15.0621 107.203 10.7114V1.45508H109.089V11.2552C109.089 12.1727 109.163 12.957 109.311 13.6082C109.467 14.2593 109.722 14.829 110.077 15.3174C110.432 15.8057 110.917 16.1683 111.531 16.405C112.153 16.6418 112.907 16.7602 113.795 16.7602C115.371 16.7602 116.57 16.2312 117.391 15.1731C118.22 14.1076 118.634 12.5353 118.634 10.4561V7.57047C118.634 6.49019 118.546 4.45173 118.368 1.45508H119.278C119.271 1.61046 119.245 2.02111 119.2 2.68704C119.156 3.34556 119.123 3.8746 119.1 4.27415C119.078 4.67371 119.056 5.19165 119.034 5.82797C119.012 6.4643 119.001 7.04513 119.001 7.57047V10.4561C119.001 12.6981 118.531 14.3888 117.591 15.5282C116.651 16.6677 115.205 17.2374 113.251 17.2374Z" fill="#586356"/>
<path d="M92.4741 1.45508H104.927V2.34298C103.721 2.02481 101.964 1.84353 99.655 1.79914V16.8934H97.7682V1.79914C95.4449 1.84353 93.6802 2.02481 92.4741 2.34298V1.45508Z" fill="#586356"/>
<path d="M92.0309 16.8934L90.5104 13.2308H82.708C82.079 15.162 81.7387 16.3828 81.6869 16.8934H80.688C81.2725 15.4801 82.1641 13.2271 83.3628 10.1342C84.5614 7.034 85.4271 4.81796 85.9599 3.48611L86.9588 1H87.2362L93.9399 16.8934H92.0309ZM82.7967 12.92H90.3661L86.4149 3.48611H86.3261C84.9129 6.90452 83.7364 10.0492 82.7967 12.92Z" fill="#586356"/>
<path d="M77.6802 17.3484L66.9366 3.73028H66.8478V10.778C66.8478 12.2578 66.944 14.2963 67.1364 16.8934H66.2041C66.2189 16.701 66.2448 16.2903 66.2818 15.6614C66.3262 15.0251 66.3595 14.496 66.3817 14.0743C66.4039 13.6525 66.4261 13.1272 66.4483 12.4983C66.4779 11.8619 66.4964 11.2811 66.5038 10.7558V1H66.7479L77.5248 14.5515H77.5914V7.57044C77.5914 6.49016 77.5026 4.4517 77.325 1.45505H78.2351C78.2203 1.65482 78.1907 2.06918 78.1463 2.6981C78.1093 3.31963 78.0797 3.84127 78.0575 4.26302C78.0353 4.68477 78.0094 5.21011 77.9798 5.83904C77.9576 6.46797 77.9428 7.0451 77.9354 7.57044V17.3484H77.6802Z" fill="#586356"/>
<path d="M59.023 16.8934H56.9808L51.9531 9.43505C49.9183 12.4169 48.4496 14.903 47.5469 16.8934H46.4814C46.7478 16.4642 47.1659 15.8279 47.7356 14.9844C48.3127 14.1409 49.0046 13.1309 49.8111 11.9545C50.625 10.7706 51.265 9.83461 51.7311 9.14649L46.548 1.45508H48.5902L53.0075 7.98112C54.0286 6.50869 54.8203 5.28783 55.3826 4.31855C55.9449 3.34926 56.4481 2.39477 56.892 1.45508H57.9353C57.6098 1.98042 56.855 3.08289 55.6712 4.7625C54.4947 6.4347 53.6734 7.61486 53.2073 8.30299L59.023 16.8934Z" fill="#586356"/>
<path d="M38.3902 16.8934V10.0011L33.54 1.45508H35.5267L39.9551 9.36846H40.0439C42.419 5.6097 43.9284 2.9719 44.5722 1.45508H45.5932C44.0986 3.70442 42.3265 6.40141 40.277 9.54604V16.8934H38.3902Z" fill="#586356"/>
<path d="M30.3105 17.3484L19.567 3.73028H19.4782V10.778C19.4782 12.2578 19.5744 14.2963 19.7668 16.8934H18.8345C18.8493 16.701 18.8752 16.2903 18.9122 15.6614C18.9566 15.0251 18.9899 14.496 19.0121 14.0743C19.0342 13.6525 19.0564 13.1272 19.0786 12.4983C19.1082 11.8619 19.1267 11.2811 19.1341 10.7558V1H19.3783L30.1552 14.5515H30.2218V7.57044C30.2218 6.49016 30.133 4.4517 29.9554 1.45505H30.8655C30.8507 1.65482 30.8211 2.06918 30.7767 2.6981C30.7397 3.31963 30.7101 3.84127 30.6879 4.26302C30.6657 4.68477 30.6398 5.21011 30.6102 5.83904C30.588 6.46797 30.5732 7.0451 30.5658 7.57044V17.3484H30.3105Z" fill="#586356"/>
<path d="M7.7913 17.2374C6.26707 17.2374 4.90933 16.897 3.71807 16.2163C2.53421 15.5282 1.61671 14.5737 0.965588 13.3529C0.321863 12.1246 0 10.7299 0 9.16864C0 7.62962 0.321863 6.25338 0.965588 5.03992C1.60931 3.81906 2.52681 2.86087 3.71807 2.16535C4.90933 1.46983 6.26707 1.12207 7.7913 1.12207C8.94556 1.12207 10.0147 1.32555 10.9988 1.7325C11.9829 2.13945 12.8153 2.69809 13.496 3.40841C14.1842 4.11132 14.7206 4.96223 15.1053 5.96111C15.4901 6.9526 15.6825 8.02177 15.6825 9.16864C15.6825 10.7225 15.3569 12.1135 14.7058 13.3418C14.0547 14.5626 13.1261 15.5171 11.92 16.2052C10.7214 16.8933 9.34512 17.2374 7.7913 17.2374ZM7.7913 16.9155C9.64108 16.9155 11.0691 16.2163 12.0754 14.8179C13.0817 13.4194 13.5848 11.5364 13.5848 9.16864C13.5848 7.62962 13.3629 6.28297 12.9189 5.12871C12.4824 3.97444 11.8238 3.07174 10.9433 2.42062C10.0702 1.7621 9.01955 1.43283 7.7913 1.43283C6.56304 1.43283 5.50866 1.7658 4.62816 2.43172C3.74767 3.09764 3.09284 4.00774 2.66369 5.162C2.23454 6.30887 2.01997 7.64442 2.01997 9.16864C2.01997 10.7225 2.23824 12.0765 2.67479 13.2308C3.11134 14.385 3.76616 15.2877 4.63926 15.9389C5.51236 16.59 6.56304 16.9155 7.7913 16.9155Z" fill="#586356"/>
</svg>
