<svg width="14" height="14" viewBox="0 0 14 14" fill="none" xmlns="http://www.w3.org/2000/svg">
<g clip-path="url(#clip0_340_64)">
<path d="M7 0C10.866 0 14 3.13403 14 7C14 10.866 10.866 14 7 14C3.13403 14 0 10.866 0 7C0 3.13403 3.13403 0 7 0ZM9.26781 4.77832C8.86821 4.5179 8.58006 4.10099 8.49002 3.61525C8.47015 3.50856 8.46007 3.40028 8.45988 3.29175H7.18482L7.18277 8.40167C7.16136 8.97392 6.69033 9.43318 6.11311 9.43318C5.93979 9.43325 5.76909 9.39098 5.61583 9.31005C5.27464 9.13054 5.04118 8.773 5.04118 8.36147C5.04118 7.77046 5.5221 7.28957 6.11289 7.28957C6.22322 7.28957 6.32909 7.30781 6.42914 7.33903V6.03739C6.32554 6.02325 6.22024 6.01453 6.11289 6.01453C4.8189 6.0145 3.76614 7.06724 3.76614 8.36147C3.76614 9.15545 4.16273 9.85808 4.76809 10.283C5.14927 10.5507 5.61304 10.7082 6.11311 10.7082C7.40712 10.7082 8.45988 9.65552 8.45988 8.36147V5.77024C8.95995 6.1291 9.57272 6.34061 10.2339 6.34061V5.06554C9.87779 5.06554 9.54611 4.95972 9.26781 4.77832Z" fill="white"/>
</g>
<defs>
<clipPath id="clip0_340_64">
<rect width="14" height="14" fill="white"/>
</clipPath>
</defs>
</svg>
